<svg width="501" height="500" viewBox="0 0 501 500" fill="none" xmlns="http://www.w3.org/2000/svg">
<path d="M318.024 250.717C269.985 250.261 226.512 249.849 195.001 249.55C179.281 249.475 166.556 249.414 157.719 249.372C153.341 249.382 149.934 249.39 147.582 249.395C146.447 249.41 145.572 249.422 144.946 249.43C144.352 249.444 144.048 249.461 144.048 249.479C144.048 249.497 144.352 249.516 144.946 249.536C145.573 249.551 146.447 249.571 147.582 249.598C149.934 249.627 153.341 249.67 157.718 249.724C166.554 249.771 179.28 249.839 195 249.923C226.513 249.943 269.987 249.97 318.028 250C366.045 249.995 409.527 250.058 441.005 250.287C456.744 250.399 469.481 250.546 478.284 250.714C482.685 250.798 486.103 250.885 488.42 250.974C490.737 251.063 491.954 251.152 491.954 251.238C491.953 251.323 490.736 251.401 488.418 251.466C486.1 251.531 482.682 251.585 478.28 251.624C469.475 251.702 456.737 251.721 440.998 251.674C409.519 251.584 366.039 251.207 318.024 250.717Z" fill="#EBEBEB"/>
<path d="M317.067 261.407C269.684 253.591 226.805 246.518 195.725 241.391C180.208 238.909 167.646 236.9 158.923 235.505C154.597 234.845 151.23 234.332 148.905 233.978C147.781 233.82 146.915 233.698 146.295 233.611C145.706 233.535 145.403 233.505 145.399 233.523C145.396 233.541 145.693 233.608 146.277 233.719C146.894 233.83 147.754 233.985 148.87 234.186C151.189 234.576 154.547 235.141 158.863 235.867C167.585 237.269 180.145 239.287 195.66 241.78C226.787 246.626 269.73 253.312 317.184 260.7C364.619 268.048 407.564 274.769 438.624 279.819C454.154 282.341 466.714 284.44 475.383 285.956C479.718 286.714 483.08 287.326 485.354 287.77C487.629 288.214 488.816 288.49 488.802 288.576C488.788 288.662 487.573 288.553 485.273 288.263C482.973 287.974 479.587 287.504 475.232 286.868C466.522 285.598 453.935 283.665 438.395 281.207C407.312 276.296 364.42 269.255 317.067 261.407Z" fill="#EBEBEB"/>
<path d="M314.423 271.817C268.88 256.738 227.667 243.092 197.793 233.201C182.866 228.341 170.782 224.406 162.39 221.673C158.223 220.35 154.98 219.321 152.74 218.61C151.655 218.28 150.82 218.025 150.221 217.843C149.651 217.676 149.357 217.6 149.351 217.618C149.345 217.636 149.628 217.748 150.186 217.949C150.777 218.155 151.602 218.441 152.673 218.814C154.901 219.56 158.126 220.639 162.272 222.027C170.662 224.766 182.742 228.71 197.666 233.582C227.631 243.2 268.971 256.47 314.653 271.133C360.324 285.753 401.66 299.058 431.525 308.869C446.459 313.772 458.526 317.796 466.845 320.641C471.004 322.063 474.226 323.19 476.402 323.983C478.577 324.776 479.706 325.234 479.678 325.317C479.65 325.4 478.467 325.105 476.241 324.462C474.016 323.82 470.747 322.83 466.548 321.527C458.149 318.921 446.028 315.059 431.074 310.217C401.163 300.54 359.93 286.925 314.423 271.817Z" fill="#EBEBEB"/>
<path d="M310.153 281.676C267.582 259.721 229.057 239.852 201.133 225.451C187.167 218.334 175.861 212.573 168.011 208.573C164.107 206.619 161.068 205.099 158.972 204.05C157.953 203.555 157.169 203.173 156.607 202.9C156.071 202.647 155.793 202.525 155.784 202.541C155.775 202.558 156.037 202.712 156.556 202.997C157.106 203.291 157.876 203.702 158.874 204.236C160.954 205.317 163.968 206.884 167.841 208.897C175.688 212.903 186.99 218.672 200.951 225.799C229.007 239.949 267.713 259.472 310.484 281.045C353.251 302.574 391.949 322.13 419.877 336.453C433.842 343.612 445.118 349.457 452.88 353.555C456.761 355.604 459.764 357.216 461.786 358.335C463.808 359.454 464.85 360.08 464.81 360.157C464.77 360.234 463.65 359.757 461.555 358.776C459.46 357.795 456.391 356.31 452.452 354.37C444.575 350.492 433.221 344.795 419.226 337.693C391.233 323.495 352.685 303.653 310.153 281.676Z" fill="#EBEBEB"/>
<path d="M304.366 290.757C265.798 262.509 230.897 236.946 205.598 218.417C192.932 209.235 182.679 201.802 175.559 196.64C172.013 194.108 169.253 192.139 167.347 190.778C166.42 190.132 165.705 189.635 165.194 189.278C164.705 188.945 164.449 188.782 164.438 188.797C164.427 188.812 164.661 189.004 165.129 189.366C165.627 189.742 166.321 190.266 167.222 190.947C169.106 192.336 171.834 194.348 175.341 196.933C182.458 202.1 192.705 209.54 205.365 218.731C230.834 237.032 265.97 262.281 304.796 290.181C343.625 318.038 378.747 343.319 404.061 361.771C416.72 370.995 426.93 378.506 433.947 383.751C437.456 386.373 440.166 388.428 441.986 389.846C443.806 391.263 444.736 392.042 444.684 392.112C444.632 392.182 443.601 391.538 441.687 390.247C439.774 388.955 436.977 387.016 433.394 384.493C426.228 379.448 415.917 372.072 403.22 362.9C377.821 344.559 342.893 319.02 304.366 290.757Z" fill="#EBEBEB"/>
<path d="M297.217 298.834C263.573 265.015 233.128 234.41 211.059 212.226C199.996 201.213 191.039 192.297 184.82 186.106C181.716 183.061 179.301 180.692 177.633 179.056C176.819 178.275 176.192 177.674 175.742 177.244C175.312 176.84 175.084 176.64 175.071 176.653C175.057 176.666 175.259 176.892 175.664 177.321C176.096 177.769 176.7 178.393 177.483 179.203C179.125 180.864 181.503 183.27 184.559 186.361C190.774 192.556 199.724 201.478 210.78 212.498C233.052 234.483 263.778 264.814 297.732 298.331C331.695 331.805 362.401 362.166 384.497 384.276C395.548 395.329 404.449 404.315 410.553 410.572C413.605 413.7 415.959 416.146 417.533 417.825C419.108 419.504 419.903 420.416 419.841 420.477C419.779 420.538 418.862 419.744 417.175 418.174C415.489 416.604 413.032 414.259 409.891 411.218C403.608 405.135 394.586 396.267 383.49 385.259C361.294 363.248 330.817 332.662 297.217 298.834Z" fill="#EBEBEB"/>
<path d="M288.883 305.717C260.983 267.148 235.735 232.246 217.435 206.947C208.243 194.371 200.802 184.19 195.635 177.121C193.049 173.637 191.037 170.927 189.647 169.055C188.966 168.159 188.441 167.469 188.065 166.975C187.704 166.51 187.511 166.277 187.495 166.288C187.48 166.299 187.642 166.553 187.975 167.039C188.331 167.547 188.828 168.256 189.474 169.178C190.834 171.071 192.804 173.812 195.335 177.334C200.497 184.407 207.931 194.593 217.114 207.175C235.647 232.309 261.216 266.983 289.47 305.3C317.74 343.576 343.285 378.277 361.625 403.507C370.797 416.12 378.173 426.363 383.216 433.48C385.738 437.039 387.677 439.815 388.967 441.716C390.257 443.616 390.899 444.639 390.828 444.69C390.757 444.741 389.977 443.816 388.558 442.007C387.14 440.198 385.083 437.505 382.459 434.018C377.212 427.046 369.698 416.902 360.473 404.326C342.019 379.176 316.738 344.287 288.883 305.717Z" fill="#EBEBEB"/>
<path d="M279.562 311.233C258.121 268.836 238.719 230.47 224.655 202.66C217.57 188.821 211.834 177.619 207.851 169.839C205.849 166 204.291 163.012 203.215 160.949C202.684 159.959 202.275 159.197 201.982 158.651C201.698 158.136 201.544 157.877 201.527 157.885C201.51 157.894 201.63 158.17 201.882 158.701C202.153 159.258 202.532 160.035 203.023 161.045C204.066 163.124 205.577 166.135 207.518 170.005C211.495 177.787 217.222 188.994 224.297 202.838C238.618 230.52 258.376 268.71 280.209 310.911C302.064 353.074 321.795 391.287 335.909 419.035C342.969 432.908 348.63 444.161 352.482 451.969C354.408 455.873 355.883 458.914 356.856 460.99C357.829 463.066 358.301 464.176 358.222 464.215C358.143 464.254 357.519 463.221 356.404 461.215C355.289 459.21 353.685 456.233 351.646 452.385C347.568 444.69 341.755 433.512 334.637 419.668C320.395 391.984 300.958 353.625 279.562 311.233Z" fill="#EBEBEB"/>
<path d="M269.478 315.24C255.069 270.044 242.03 229.145 232.579 199.499C227.789 184.734 223.912 172.78 221.22 164.48C219.855 160.378 218.793 157.186 218.059 154.982C217.692 153.922 217.41 153.106 217.207 152.521C217.009 151.969 216.899 151.688 216.88 151.694C216.862 151.7 216.936 151.991 217.1 152.555C217.279 153.147 217.529 153.974 217.853 155.047C218.551 157.262 219.562 160.47 220.861 164.593C223.547 172.895 227.415 184.851 232.192 199.62C241.919 229.179 255.339 269.959 270.168 315.022C285.026 360.051 298.415 400.848 307.926 430.441C312.685 445.236 316.479 457.228 319.037 465.536C320.316 469.69 321.287 472.923 321.916 475.124C322.546 477.325 322.834 478.495 322.749 478.521C322.665 478.547 322.213 477.43 321.431 475.277C320.65 473.124 319.54 469.935 318.14 465.819C315.34 457.587 311.383 445.646 306.562 430.871C296.918 401.321 283.843 360.424 269.478 315.24Z" fill="#EBEBEB"/>
<path d="M258.877 317.631C251.858 270.763 245.506 228.35 240.901 197.606C238.527 182.281 236.606 169.875 235.272 161.261C234.579 156.998 234.039 153.681 233.667 151.391C233.474 150.287 233.326 149.438 233.219 148.829C233.112 148.253 233.047 147.959 233.029 147.962C233.011 147.965 233.038 148.264 233.11 148.846C233.192 149.459 233.307 150.313 233.456 151.423C233.792 153.719 234.279 157.044 234.905 161.317C236.233 169.933 238.145 182.34 240.507 197.666C245.396 228.366 252.142 270.721 259.595 317.523C267.082 364.297 273.794 406.664 278.465 437.363C280.804 452.712 282.638 465.144 283.839 473.745C284.44 478.046 284.882 481.389 285.153 483.66C285.424 485.931 285.522 487.131 285.435 487.144C285.348 487.157 285.08 485.983 284.652 483.736C284.224 481.488 283.638 478.167 282.913 473.885C281.462 465.321 279.459 452.915 277.056 437.575C272.243 406.897 265.856 364.481 258.877 317.631Z" fill="#EBEBEB"/>
<path d="M248.025 318.358C248.457 270.983 248.849 228.112 249.133 197.036C249.199 181.534 249.253 168.984 249.29 160.27C249.277 155.953 249.267 152.593 249.26 150.274C249.244 149.154 249.231 148.292 249.222 147.674C249.207 147.088 249.191 146.788 249.173 146.788C249.155 146.788 249.135 147.088 249.115 147.673C249.1 148.291 249.08 149.153 249.054 150.272C249.026 152.591 248.985 155.951 248.933 160.268C248.891 168.983 248.829 181.532 248.754 197.034C248.753 228.111 248.752 270.984 248.751 318.36C248.786 365.713 248.749 408.594 248.536 439.636C248.432 455.157 248.291 467.719 248.126 476.4C248.044 480.741 247.957 484.111 247.868 486.396C247.779 488.681 247.69 489.881 247.603 489.881C247.516 489.881 247.437 488.68 247.37 486.394C247.302 484.108 247.246 480.737 247.204 476.396C247.119 467.714 247.092 455.151 247.131 439.63C247.202 408.589 247.557 365.709 248.025 318.358Z" fill="#EBEBEB"/>
<path d="M237.185 317.421C245.081 270.689 252.226 228.399 257.405 197.744C259.912 182.44 261.941 170.051 263.35 161.448C264.016 157.181 264.534 153.86 264.892 151.568C265.052 150.459 265.174 149.606 265.263 148.994C265.34 148.413 265.37 148.114 265.352 148.111C265.333 148.108 265.266 148.401 265.153 148.976C265.041 149.584 264.884 150.432 264.681 151.534C264.287 153.821 263.716 157.133 262.983 161.389C261.568 169.991 259.529 182.379 257.01 197.681C252.115 228.38 245.363 270.733 237.901 317.535C230.48 364.319 223.692 406.674 218.59 437.307C216.042 452.624 213.922 465.011 212.39 473.561C211.624 477.836 211.006 481.152 210.557 483.396C210.108 485.64 209.829 486.811 209.742 486.797C209.655 486.783 209.765 485.585 210.057 483.316C210.349 481.047 210.824 477.708 211.465 473.413C212.748 464.823 214.699 452.409 217.183 437.082C222.144 406.428 229.256 364.124 237.185 317.421Z" fill="#EBEBEB"/>
<path d="M226.626 314.82C241.888 269.898 255.7 229.246 265.71 199.779C270.629 185.056 274.611 173.136 277.377 164.859C278.716 160.749 279.757 157.55 280.476 155.341C280.81 154.271 281.068 153.447 281.252 152.856C281.421 152.294 281.498 152.004 281.48 151.998C281.462 151.992 281.348 152.271 281.145 152.822C280.937 153.405 280.646 154.219 280.27 155.275C279.515 157.473 278.422 160.654 277.018 164.743C274.246 173.018 270.254 184.935 265.324 199.654C255.589 229.211 242.16 269.987 227.32 315.047C212.523 360.095 199.058 400.869 189.128 430.327C184.166 445.057 180.093 456.96 177.213 465.165C175.774 469.268 174.633 472.446 173.831 474.592C173.029 476.738 172.565 477.851 172.48 477.823C172.396 477.796 172.695 476.629 173.344 474.434C173.994 472.239 174.995 469.015 176.314 464.873C178.951 456.589 182.86 444.633 187.76 429.883C197.556 400.378 211.336 359.708 226.626 314.82Z" fill="#EBEBEB"/>
<path d="M216.626 310.616C238.862 268.62 258.985 230.615 273.571 203.068C280.779 189.291 286.614 178.138 290.665 170.393C292.644 166.541 294.183 163.544 295.246 161.476C295.748 160.471 296.134 159.697 296.41 159.143C296.667 158.615 296.79 158.34 296.773 158.331C296.756 158.323 296.6 158.581 296.312 159.093C296.014 159.636 295.598 160.395 295.057 161.38C293.962 163.432 292.375 166.405 290.336 170.226C286.279 177.967 280.435 189.116 273.217 202.888C258.886 230.564 239.114 268.748 217.265 310.941C195.46 353.13 175.655 391.304 161.149 418.855C153.898 432.632 147.979 443.755 143.828 451.412C141.753 455.241 140.12 458.203 138.987 460.198C137.854 462.193 137.219 463.221 137.142 463.181C137.064 463.141 137.547 462.036 138.54 459.97C139.534 457.904 141.038 454.876 143.002 450.991C146.93 443.22 152.699 432.02 159.892 418.215C174.272 390.601 194.368 352.574 216.626 310.616Z" fill="#EBEBEB"/>
<path d="M207.415 304.915C236.035 266.863 261.935 232.428 280.708 207.469C290.011 194.973 297.542 184.856 302.772 177.832C305.337 174.333 307.333 171.611 308.711 169.731C309.365 168.816 309.869 168.111 310.231 167.606C310.568 167.124 310.733 166.871 310.718 166.86C310.703 166.849 310.508 167.08 310.142 167.541C309.761 168.032 309.23 168.717 308.541 169.606C307.133 171.465 305.096 174.157 302.476 177.616C297.241 184.637 289.703 194.748 280.391 207.238C261.849 232.365 236.268 267.031 208 305.339C179.777 343.648 154.163 378.3 135.468 403.276C126.123 415.765 118.512 425.839 113.198 432.762C110.541 436.223 108.459 438.898 107.023 440.693C105.587 442.489 104.797 443.406 104.727 443.355C104.656 443.304 105.308 442.287 106.617 440.398C107.925 438.51 109.891 435.751 112.446 432.217C117.557 425.147 125.031 414.974 134.323 402.446C152.904 377.388 178.78 342.926 207.415 304.915Z" fill="#EBEBEB"/>
<path d="M199.22 297.87C233.493 264.671 264.508 234.627 286.989 212.85C298.15 201.933 307.185 193.095 313.459 186.958C316.545 183.895 318.946 181.512 320.604 179.866C321.395 179.063 322.004 178.444 322.44 178.001C322.849 177.576 323.053 177.352 323.039 177.339C323.026 177.326 322.797 177.524 322.362 177.924C321.908 178.351 321.276 178.946 320.454 179.719C318.771 181.339 316.333 183.686 313.2 186.702C306.922 192.835 297.881 201.667 286.712 212.576C264.432 234.553 233.695 264.874 199.729 298.378C165.806 331.892 135.039 362.192 112.632 383.996C101.431 394.9 92.324 403.684 85.983 409.708C82.813 412.72 80.334 415.042 78.633 416.596C76.932 418.15 76.007 418.935 75.945 418.874C75.883 418.813 76.688 417.908 78.278 416.244C79.868 414.58 82.245 412.156 85.327 409.056C91.491 402.856 100.478 393.953 111.633 383.004C133.943 361.1 164.938 331.026 199.22 297.87Z" fill="#EBEBEB"/>
<path d="M192.235 289.655C231.327 262.117 266.704 237.197 292.346 219.134C305.093 210.062 315.412 202.717 322.577 197.617C326.108 195.065 328.855 193.079 330.753 191.707C331.661 191.035 332.36 190.517 332.861 190.146C333.332 189.789 333.568 189.599 333.557 189.584C333.546 189.569 333.289 189.73 332.797 190.058C332.281 190.41 331.563 190.901 330.629 191.538C328.71 192.88 325.932 194.824 322.362 197.323C315.193 202.418 304.869 209.756 292.116 218.819C266.641 237.112 231.496 262.349 192.66 290.236C153.865 318.139 118.693 343.352 93.12 361.454C80.335 370.507 69.954 377.788 62.74 382.765C59.133 385.254 56.318 387.168 54.392 388.441C52.466 389.715 51.429 390.349 51.377 390.278C51.326 390.208 52.263 389.438 54.097 388.037C55.93 386.637 58.66 384.607 62.194 382.018C69.261 376.839 79.542 369.423 92.289 360.317C117.779 342.102 153.141 317.149 192.235 289.655Z" fill="#EBEBEB"/>
<path d="M186.635 280.467C229.613 259.296 268.505 240.138 296.697 226.251C310.725 219.255 322.082 213.592 329.968 209.659C333.86 207.682 336.889 206.144 338.979 205.082C339.983 204.557 340.755 204.154 341.309 203.864C341.831 203.584 342.094 203.432 342.085 203.415C342.076 203.398 341.796 203.517 341.258 203.765C340.694 204.033 339.905 204.407 338.882 204.892C336.775 205.922 333.722 207.413 329.799 209.33C321.91 213.257 310.55 218.912 296.517 225.898C268.456 240.038 229.742 259.547 186.962 281.105C144.221 302.685 105.485 322.166 77.357 336.102C63.294 343.073 51.886 348.662 43.971 352.466C40.014 354.368 36.93 355.824 34.826 356.785C32.722 357.746 31.597 358.211 31.557 358.134C31.517 358.056 32.565 357.44 34.598 356.339C36.631 355.238 39.649 353.654 43.549 351.641C51.349 347.615 62.68 341.875 76.714 334.847C104.778 320.786 143.662 301.593 186.635 280.467Z" fill="#EBEBEB"/>
<path d="M182.567 270.524C228.387 256.286 269.852 243.401 299.908 234.062C314.877 229.329 326.996 225.498 335.411 222.838C339.57 221.489 342.806 220.44 345.04 219.715C346.114 219.353 346.942 219.074 347.535 218.874C348.095 218.678 348.379 218.569 348.373 218.551C348.367 218.533 348.072 218.607 347.5 218.768C346.9 218.945 346.062 219.192 344.974 219.512C342.728 220.202 339.476 221.201 335.296 222.485C326.879 225.139 314.757 228.961 299.784 233.682C269.816 243.293 228.473 256.553 182.787 271.205C137.136 285.886 95.775 299.115 65.774 308.514C50.774 313.216 38.617 316.966 30.193 319.494C25.981 320.758 22.704 321.717 20.473 322.339C18.241 322.961 17.056 323.246 17.029 323.163C17.002 323.08 18.135 322.633 20.318 321.861C22.501 321.089 25.734 319.993 29.907 318.61C38.253 315.844 50.358 311.933 65.338 307.17C95.296 297.639 136.758 284.72 182.567 270.524Z" fill="#EBEBEB"/>
<path d="M180.135 260.072C227.656 253.12 270.661 246.829 301.832 242.27C317.37 239.92 329.949 238.017 338.683 236.696C343.006 236.01 346.369 235.476 348.691 235.107C349.81 234.916 350.671 234.769 351.289 234.664C351.873 234.558 352.171 234.494 352.168 234.476C352.165 234.458 351.862 234.485 351.272 234.556C350.651 234.638 349.784 234.751 348.658 234.899C346.33 235.232 342.959 235.714 338.627 236.334C329.891 237.649 317.311 239.543 301.771 241.882C270.643 246.723 227.699 253.401 180.245 260.781C132.82 268.194 89.8631 274.839 58.7361 279.465C43.1731 281.781 30.5681 283.598 21.8471 284.788C17.4861 285.383 14.0971 285.822 11.7941 286.09C9.49109 286.358 8.27509 286.456 8.26109 286.37C8.24809 286.284 9.43809 286.019 11.7171 285.596C13.9961 285.173 17.3631 284.592 21.7051 283.874C30.3881 282.438 42.9671 280.454 58.5201 278.075C89.6251 273.309 132.632 266.983 180.135 260.072Z" fill="#EBEBEB"/>
<path d="M179.391 249.372C227.431 249.769 270.904 250.128 302.415 250.389C318.135 250.445 330.861 250.49 339.698 250.521C344.076 250.506 347.482 250.493 349.834 250.485C350.969 250.468 351.844 250.455 352.47 250.446C353.064 250.431 353.368 250.415 353.368 250.397C353.368 250.379 353.064 250.36 352.47 250.341C351.844 250.327 350.969 250.307 349.834 250.282C347.482 250.256 344.075 250.218 339.698 250.168C330.861 250.132 318.135 250.079 302.415 250.014C270.903 250.033 227.428 250.058 179.387 250.087C131.37 250.151 87.887 250.141 56.409 249.95C40.67 249.858 27.932 249.726 19.129 249.569C14.727 249.491 11.31 249.407 8.99298 249.321C6.67598 249.235 5.45898 249.147 5.45898 249.062C5.45898 248.977 6.67698 248.898 8.99398 248.83C11.312 248.762 14.73 248.704 19.132 248.66C27.936 248.571 40.675 248.537 56.414 248.565C87.895 248.615 131.376 248.94 179.391 249.372Z" fill="#EBEBEB"/>
<path d="M180.334 238.68C227.727 246.437 270.615 253.456 301.702 258.544C317.222 261.006 329.786 263 338.511 264.384C342.839 265.038 346.206 265.547 348.531 265.899C349.655 266.056 350.521 266.176 351.142 266.263C351.731 266.339 352.035 266.368 352.037 266.35C352.04 266.332 351.743 266.265 351.16 266.155C350.543 266.045 349.683 265.891 348.565 265.691C346.246 265.304 342.887 264.743 338.571 264.023C329.847 262.632 317.285 260.63 301.766 258.156C270.633 253.349 227.681 246.717 180.218 239.388C132.773 232.1 89.8191 225.432 58.7541 220.421C43.2201 217.918 30.6581 215.835 21.9871 214.33C17.6511 213.578 14.2891 212.97 12.0131 212.529C9.73709 212.088 8.55009 211.813 8.56309 211.727C8.57709 211.641 9.79309 211.749 12.0931 212.035C14.3941 212.321 17.7801 212.787 22.1351 213.417C30.8461 214.676 43.4361 216.593 58.9801 219.032C90.0701 223.904 132.971 230.891 180.334 238.68Z" fill="#EBEBEB"/>
<path d="M182.965 228.266C228.527 243.288 269.758 256.882 299.645 266.736C314.578 271.578 326.667 275.497 335.063 278.219C339.232 279.536 342.476 280.561 344.716 281.269C345.801 281.598 346.637 281.851 347.236 282.033C347.806 282.199 348.101 282.275 348.107 282.257C348.113 282.239 347.83 282.127 347.272 281.927C346.68 281.722 345.855 281.436 344.784 281.065C342.555 280.322 339.328 279.246 335.181 277.864C326.788 275.136 314.702 271.207 299.773 266.354C269.795 256.773 228.438 243.555 182.737 228.95C137.047 214.387 95.6931 201.134 65.8161 191.36C50.8761 186.476 38.8041 182.467 30.4821 179.633C26.3211 178.216 23.0971 177.093 20.9211 176.303C18.7451 175.513 17.6151 175.057 17.6431 174.973C17.6711 174.89 18.8541 175.184 21.0811 175.823C23.3071 176.462 26.5771 177.448 30.7781 178.745C39.1801 181.34 51.3061 185.187 66.2671 190.01C96.1881 199.652 137.438 213.216 182.965 228.266Z" fill="#EBEBEB"/>
<path d="M187.222 218.402C229.822 240.304 268.372 260.124 296.314 274.491C310.289 281.59 321.602 287.337 329.458 291.328C333.365 293.277 336.405 294.793 338.503 295.84C339.523 296.334 340.307 296.714 340.869 296.987C341.405 297.24 341.684 297.361 341.693 297.344C341.702 297.328 341.44 297.174 340.92 296.889C340.369 296.596 339.6 296.185 338.601 295.653C336.519 294.574 333.503 293.012 329.628 291.003C321.775 287.007 310.466 281.251 296.497 274.142C268.423 260.026 229.692 240.552 186.892 219.033C144.097 197.557 105.375 178.049 77.429 163.761C63.455 156.62 52.171 150.789 44.404 146.7C40.521 144.656 37.516 143.048 35.492 141.931C33.468 140.814 32.425 140.19 32.465 140.113C32.505 140.036 33.626 140.512 35.722 141.49C37.818 142.468 40.889 143.949 44.83 145.884C52.712 149.752 64.073 155.435 78.077 162.52C106.088 176.684 144.661 196.478 187.222 218.402Z" fill="#EBEBEB"/>
<path d="M192.997 209.314C231.601 237.514 266.535 263.034 291.857 281.531C304.535 290.697 314.797 298.118 321.924 303.271C325.474 305.798 328.236 307.764 330.142 309.122C331.071 309.767 331.786 310.264 332.298 310.619C332.787 310.952 333.043 311.114 333.055 311.099C333.066 311.084 332.832 310.892 332.364 310.531C331.866 310.156 331.171 309.632 330.268 308.953C328.382 307.566 325.652 305.558 322.142 302.977C315.019 297.819 304.761 290.392 292.09 281.217C266.598 262.947 231.43 237.742 192.568 209.89C153.703 182.081 118.549 156.844 93.2119 138.423C80.5409 129.215 70.3209 121.716 63.2979 116.48C59.7859 113.862 57.0729 111.81 55.2509 110.396C53.4289 108.981 52.4979 108.203 52.5499 108.133C52.6019 108.063 53.6339 108.705 55.5489 109.994C57.4639 111.283 60.2629 113.22 63.8489 115.738C71.0209 120.774 81.3419 128.138 94.0509 137.294C119.474 155.603 154.435 181.099 192.997 209.314Z" fill="#EBEBEB"/>
<path d="M200.136 201.228C233.822 235.006 264.307 265.573 286.403 287.729C297.48 298.728 306.448 307.633 312.675 313.816C315.783 316.857 318.201 319.223 319.871 320.857C320.686 321.637 321.314 322.237 321.764 322.667C322.195 323.071 322.423 323.27 322.436 323.257C322.449 323.244 322.248 323.018 321.842 322.59C321.409 322.143 320.805 321.519 320.021 320.71C318.377 319.051 315.996 316.648 312.936 313.561C306.713 307.374 297.752 298.463 286.682 287.456C264.382 265.498 233.617 235.205 199.622 201.731C165.617 168.299 134.871 137.976 112.747 115.893C101.682 104.854 92.7699 95.879 86.6569 89.63C83.6009 86.505 81.2439 84.063 79.6679 82.386C78.0919 80.709 77.2949 79.798 77.3569 79.737C77.4189 79.676 78.3369 80.469 80.0249 82.036C81.7129 83.603 84.1729 85.946 87.3179 88.983C93.6089 95.058 102.642 103.915 113.753 114.909C135.978 136.893 166.493 167.441 200.136 201.228Z" fill="#EBEBEB"/>
<path d="M208.462 194.335C236.411 232.869 261.703 267.74 280.036 293.017C289.244 305.582 296.698 315.753 301.874 322.816C304.465 326.296 306.48 329.005 307.872 330.875C308.555 331.77 309.08 332.459 309.457 332.953C309.819 333.417 310.012 333.65 310.027 333.639C310.042 333.628 309.879 333.374 309.546 332.889C309.189 332.381 308.691 331.672 308.044 330.752C306.682 328.861 304.709 326.122 302.173 322.603C297.002 315.536 289.555 305.36 280.356 292.789C261.791 267.678 236.178 233.035 207.874 194.754C179.555 156.513 153.966 121.844 135.594 96.636C126.405 84.034 119.017 73.801 113.965 66.69C111.439 63.135 109.497 60.36 108.204 58.462C106.911 56.564 106.268 55.541 106.339 55.491C106.41 55.44 107.192 56.364 108.613 58.171C110.034 59.978 112.094 62.669 114.722 66.152C119.978 73.117 127.505 83.252 136.746 95.817C155.232 120.941 180.557 155.799 208.462 194.335Z" fill="#EBEBEB"/>
<path d="M217.775 188.806C239.27 231.176 258.722 269.518 272.821 297.311C279.924 311.141 285.674 322.336 289.667 330.111C291.674 333.948 293.236 336.934 294.314 338.995C294.847 339.984 295.256 340.746 295.55 341.292C295.834 341.806 295.988 342.066 296.005 342.057C296.022 342.049 295.901 341.773 295.649 341.242C295.377 340.685 294.997 339.908 294.505 338.9C293.459 336.822 291.945 333.813 289.999 329.946C286.012 322.169 280.27 310.969 273.177 297.134C258.82 269.47 239.013 231.305 217.126 189.131C195.217 146.995 175.437 108.807 161.287 81.077C154.21 67.213 148.534 55.966 144.672 48.164C142.741 44.263 141.262 41.223 140.287 39.148C139.312 37.073 138.838 35.964 138.917 35.925C138.995 35.886 139.622 36.918 140.739 38.922C141.856 40.926 143.465 43.901 145.508 47.746C149.596 55.436 155.423 66.607 162.559 80.441C176.838 108.107 196.325 146.441 217.775 188.806Z" fill="#EBEBEB"/>
<path d="M227.854 184.787C242.321 229.965 255.413 270.848 264.903 300.482C269.711 315.241 273.604 327.189 276.307 335.487C277.677 339.587 278.744 342.778 279.48 344.981C279.848 346.04 280.132 346.856 280.335 347.441C280.534 347.993 280.645 348.273 280.663 348.267C280.681 348.261 280.606 347.97 280.442 347.407C280.262 346.815 280.011 345.989 279.686 344.916C278.985 342.702 277.97 339.495 276.665 335.374C273.969 327.075 270.085 315.124 265.288 300.361C255.523 270.814 242.051 230.051 227.163 185.007C212.247 139.997 198.805 99.216 189.256 69.636C184.478 54.847 180.668 42.859 178.099 34.555C176.814 30.403 175.84 27.171 175.208 24.971C174.576 22.771 174.286 21.602 174.37 21.575C174.454 21.548 174.908 22.665 175.692 24.817C176.476 26.969 177.589 30.157 178.995 34.271C181.805 42.499 185.779 54.435 190.618 69.205C200.303 98.741 213.431 139.621 227.854 184.787Z" fill="#EBEBEB"/>
<path d="M238.452 182.383C245.531 229.242 251.938 271.648 256.581 302.385C258.974 317.707 260.912 330.11 262.257 338.723C262.956 342.985 263.499 346.301 263.874 348.591C264.068 349.694 264.218 350.544 264.325 351.153C264.433 351.729 264.498 352.023 264.516 352.02C264.535 352.017 264.507 351.718 264.435 351.136C264.352 350.524 264.236 349.669 264.085 348.559C263.746 346.263 263.255 342.939 262.623 338.667C261.284 330.053 259.356 317.648 256.974 302.325C252.046 271.631 245.246 229.285 237.733 182.491C230.186 135.727 223.42 93.368 218.709 62.675C216.351 47.329 214.5 34.9 213.288 26.3C212.682 22 212.235 18.658 211.961 16.387C211.687 14.116 211.587 12.917 211.674 12.904C211.761 12.891 212.031 14.064 212.461 16.312C212.891 18.559 213.482 21.88 214.213 26.161C215.675 34.723 217.694 47.127 220.117 62.463C224.971 93.134 231.413 135.542 238.452 182.383Z" fill="#EBEBEB"/>
<path d="M249.301 181.642C248.929 229.017 248.592 271.889 248.348 302.965C248.301 318.467 248.264 331.017 248.237 339.732C248.256 344.049 248.27 347.409 248.28 349.728C248.298 350.848 248.311 351.71 248.321 352.328C248.336 352.914 248.354 353.214 248.372 353.214C248.39 353.214 248.409 352.914 248.429 352.329C248.443 351.711 248.462 350.849 248.487 349.73C248.512 347.411 248.549 344.051 248.596 339.734C248.627 331.019 248.672 318.47 248.728 302.968C248.689 271.892 248.635 229.018 248.576 181.642C248.481 134.289 248.464 91.408 248.637 60.365C248.721 44.843 248.847 32.282 249 23.601C249.077 19.26 249.159 15.89 249.245 13.605C249.331 11.32 249.419 10.12 249.506 10.12C249.592 10.12 249.673 11.321 249.743 13.607C249.814 15.893 249.874 19.264 249.922 23.605C250.018 32.287 250.061 44.849 250.042 60.371C250.01 91.411 249.709 134.291 249.301 181.642Z" fill="#EBEBEB"/>
<path d="M260.143 182.566C252.308 229.308 245.218 271.608 240.079 302.268C237.592 317.575 235.579 329.967 234.181 338.572C233.52 342.84 233.007 346.161 232.652 348.454C232.494 349.563 232.372 350.417 232.285 351.029C232.209 351.61 232.179 351.909 232.198 351.912C232.217 351.915 232.284 351.622 232.396 351.046C232.507 350.438 232.663 349.589 232.865 348.487C233.256 346.2 233.822 342.887 234.55 338.63C235.954 330.026 237.977 317.636 240.475 302.33C245.329 271.624 252.027 229.263 259.428 182.452C266.788 135.659 273.521 93.295 278.583 62.656C281.111 47.336 283.215 34.946 284.736 26.394C285.496 22.118 286.11 18.801 286.556 16.557C287.002 14.313 287.28 13.141 287.367 13.155C287.454 13.169 287.346 14.367 287.057 16.636C286.768 18.905 286.298 22.244 285.662 26.54C284.391 35.132 282.455 47.548 279.991 62.878C275.068 93.54 268.011 135.853 260.143 182.566Z" fill="#EBEBEB"/>
<path d="M270.705 185.153C255.502 230.094 241.744 270.764 231.771 300.244C226.871 314.974 222.905 326.898 220.15 335.179C218.817 339.291 217.779 342.491 217.063 344.701C216.73 345.771 216.474 346.595 216.29 347.187C216.122 347.749 216.045 348.04 216.064 348.046C216.082 348.052 216.196 347.773 216.398 347.222C216.605 346.638 216.894 345.825 217.27 344.768C218.022 342.569 219.111 339.386 220.51 335.296C223.271 327.017 227.247 315.096 232.159 300.37C241.855 270.801 255.231 230.007 270.012 184.929C284.749 139.862 298.161 99.071 308.053 69.601C312.996 54.865 317.053 42.956 319.922 34.748C321.356 30.643 322.493 27.464 323.292 25.317C324.092 23.17 324.554 22.057 324.638 22.084C324.723 22.111 324.425 23.278 323.778 25.474C323.131 27.67 322.134 30.895 320.821 35.039C318.195 43.327 314.302 55.288 309.421 70.044C299.664 99.558 285.937 140.246 270.705 185.153Z" fill="#EBEBEB"/>
<path d="M280.711 189.345C258.529 231.369 238.456 269.399 223.906 296.964C216.716 310.75 210.895 321.911 206.854 329.66C204.88 333.514 203.345 336.513 202.285 338.583C201.785 339.589 201.4 340.363 201.124 340.917C200.868 341.446 200.745 341.721 200.762 341.729C200.779 341.738 200.935 341.479 201.222 340.967C201.52 340.423 201.935 339.664 202.474 338.679C203.566 336.625 205.149 333.65 207.183 329.827C211.23 322.08 217.059 310.924 224.259 297.143C238.554 269.448 258.277 231.24 280.07 189.019C301.82 146.802 321.576 108.603 336.046 81.034C343.279 67.248 349.184 56.117 353.325 48.455C355.395 44.624 357.024 41.659 358.155 39.663C359.286 37.667 359.919 36.638 359.997 36.677C360.075 36.717 359.593 37.822 358.603 39.89C357.612 41.958 356.112 44.987 354.153 48.875C350.235 56.651 344.481 67.858 337.305 81.673C322.961 109.307 302.914 147.359 280.711 189.345Z" fill="#EBEBEB"/>
<path d="M289.929 195.034C261.358 233.122 235.503 267.589 216.762 292.572C207.475 305.08 199.957 315.206 194.737 322.237C192.177 325.739 190.184 328.464 188.809 330.346C188.155 331.262 187.652 331.967 187.292 332.473C186.955 332.956 186.791 333.209 186.806 333.22C186.821 333.231 187.016 333 187.381 332.538C187.761 332.047 188.292 331.361 188.98 330.471C190.385 328.611 192.42 325.916 195.034 322.453C200.26 315.425 207.785 305.305 217.081 292.803C235.591 267.652 261.127 232.954 289.345 194.612C317.519 156.267 343.088 121.583 361.751 96.584C371.08 84.083 378.678 73.999 383.982 67.07C386.635 63.605 388.713 60.928 390.147 59.131C391.581 57.333 392.369 56.415 392.44 56.466C392.51 56.517 391.86 57.535 390.554 59.425C389.248 61.314 387.286 64.076 384.735 67.614C379.633 74.69 372.173 84.873 362.896 97.412C344.347 122.494 318.516 156.988 289.929 195.034Z" fill="#EBEBEB"/>
<path d="M298.134 202.07C263.904 235.312 232.928 265.394 210.475 287.199C199.328 298.13 190.305 306.979 184.038 313.124C180.956 316.191 178.558 318.577 176.903 320.225C176.113 321.029 175.504 321.649 175.069 322.093C174.66 322.518 174.457 322.743 174.47 322.756C174.483 322.769 174.712 322.571 175.146 322.17C175.599 321.743 176.231 321.147 177.052 320.373C178.733 318.751 181.168 316.401 184.297 313.381C190.567 307.24 199.597 298.397 210.751 287.473C233.002 265.468 263.7 235.109 297.623 201.562C331.503 168.006 362.231 137.667 384.609 115.835C395.796 104.917 404.892 96.121 411.225 90.09C414.392 87.074 416.867 84.749 418.567 83.193C420.266 81.637 421.19 80.851 421.251 80.912C421.313 80.973 420.509 81.879 418.921 83.545C417.333 85.211 414.959 87.638 411.881 90.741C405.725 96.948 396.749 105.863 385.608 116.826C363.33 138.758 332.373 168.87 298.134 202.07Z" fill="#EBEBEB"/>
<path d="M305.129 210.276C266.072 237.863 230.728 262.828 205.109 280.923C192.374 290.011 182.065 297.369 174.905 302.478C171.377 305.035 168.632 307.024 166.737 308.398C165.829 309.072 165.131 309.59 164.63 309.962C164.16 310.319 163.924 310.51 163.935 310.525C163.946 310.54 164.203 310.379 164.695 310.05C165.21 309.698 165.928 309.206 166.861 308.567C168.778 307.222 171.553 305.275 175.121 302.772C182.284 297.668 192.598 290.317 205.34 281.238C230.791 262.913 265.904 237.633 304.704 209.696C343.463 181.744 378.602 156.487 404.152 138.353C416.925 129.284 427.297 121.99 434.504 117.004C438.108 114.51 440.92 112.593 442.844 111.317C444.768 110.041 445.805 109.406 445.856 109.476C445.907 109.546 444.971 110.318 443.139 111.72C441.307 113.122 438.58 115.156 435.05 117.749C427.99 122.937 417.718 130.366 404.983 139.487C379.517 157.735 344.187 182.733 305.129 210.276Z" fill="#EBEBEB"/>
<path d="M310.741 219.457C267.791 240.682 228.923 259.889 200.75 273.812C186.731 280.826 175.382 286.503 167.501 290.446C163.612 292.428 160.585 293.97 158.496 295.035C157.493 295.561 156.721 295.965 156.168 296.255C155.646 296.536 155.383 296.688 155.392 296.704C155.401 296.721 155.68 296.602 156.218 296.353C156.782 296.084 157.57 295.71 158.593 295.223C160.699 294.191 163.75 292.695 167.67 290.773C175.554 286.836 186.907 281.167 200.931 274.163C228.974 259.987 267.662 240.43 310.414 218.818C353.127 197.184 391.837 177.654 419.947 163.682C434.001 156.693 445.402 151.089 453.311 147.276C457.266 145.369 460.347 143.909 462.451 142.946C464.554 141.983 465.679 141.516 465.718 141.593C465.758 141.671 464.711 142.289 462.68 143.392C460.649 144.495 457.633 146.083 453.735 148.101C445.94 152.137 434.616 157.891 420.592 164.937C392.545 179.034 353.686 198.276 310.741 219.457Z" fill="#EBEBEB"/>
<path d="M314.823 229.394C269.021 243.69 227.573 256.627 197.529 266.005C182.566 270.757 170.452 274.603 162.041 277.274C157.884 278.628 154.649 279.682 152.416 280.409C151.342 280.773 150.515 281.053 149.922 281.253C149.363 281.449 149.079 281.559 149.085 281.577C149.091 281.595 149.386 281.521 149.957 281.359C150.557 281.181 151.394 280.934 152.482 280.612C154.727 279.919 157.978 278.916 162.156 277.627C170.57 274.963 182.686 271.125 197.653 266.385C227.608 256.736 268.934 243.423 314.601 228.713C360.233 213.974 401.577 200.692 431.566 191.256C446.56 186.535 458.712 182.769 467.132 180.231C471.342 178.962 474.618 177.998 476.849 177.373C479.08 176.748 480.264 176.462 480.292 176.545C480.319 176.628 479.186 177.076 477.005 177.851C474.823 178.625 471.591 179.726 467.42 181.114C459.078 183.891 446.977 187.817 432.004 192.599C402.058 202.168 360.613 215.14 314.823 229.394Z" fill="#EBEBEB"/>
<path d="M317.268 239.843C269.756 246.855 226.76 253.2 195.594 257.799C180.059 260.169 167.483 262.088 158.75 263.42C154.429 264.112 151.066 264.65 148.744 265.022C147.625 265.214 146.764 265.362 146.147 265.469C145.563 265.576 145.265 265.64 145.268 265.658C145.271 265.677 145.574 265.649 146.164 265.577C146.785 265.495 147.652 265.38 148.777 265.231C151.104 264.895 154.475 264.408 158.807 263.783C167.541 262.457 180.119 260.547 195.655 258.189C226.777 253.309 269.712 246.576 317.157 239.137C364.572 231.664 407.521 224.965 438.642 220.299C454.202 217.963 466.804 216.131 475.524 214.93C479.884 214.329 483.273 213.886 485.576 213.615C487.879 213.344 489.094 213.244 489.108 213.33C489.122 213.416 487.932 213.683 485.653 214.108C483.375 214.534 480.008 215.119 475.667 215.842C466.986 217.289 454.409 219.288 438.859 221.687C407.76 226.492 364.761 232.872 317.268 239.843Z" fill="#EBEBEB"/>
<path d="M379.385 371.399C373.727 364.741 365.901 360.732 360.462 359.202C355.369 357.768 347.648 356.462 339.787 358.379C334.905 359.57 330.629 361.87 327.079 365.217C322.874 369.181 319.663 374.647 317.536 381.463C317.217 382.486 317.323 383.568 317.835 384.512C318.349 385.46 319.204 386.144 320.243 386.436L333.597 390.195C335.481 390.725 337.497 389.775 338.285 387.985C340.056 383.964 344.526 377.612 354.568 380.253C362.22 382.269 363.808 388.661 364.136 391.318C364.671 395.641 362.968 400.111 359.582 403.273C354.379 408.131 347.59 407.188 344.006 406.194C339.884 405.05 335.594 407.45 334.442 411.543L330.397 425.913C329.806 428.012 331.033 430.199 333.132 430.79L346.143 434.452C348.242 435.043 350.429 433.816 351.02 431.717L351.87 428.698C351.89 428.626 351.953 428.576 352.03 428.571C355.269 428.366 361.685 427.476 368.271 423.808C376.679 419.126 382.382 411.633 385.224 401.539C389.291 387.094 384.293 377.175 379.385 371.399Z" fill="#E0E0E0"/>
<path d="M339.267 436.421L338.129 436.101C332.688 434.569 327.014 437.75 325.483 443.192C323.952 448.634 327.132 454.307 332.574 455.838L333.712 456.158C339.153 457.69 344.827 454.509 346.358 449.067C347.889 443.625 344.709 437.953 339.267 436.421Z" fill="#E0E0E0"/>
<path d="M408.062 291.81C404.133 289.658 399.65 289.173 396.765 289.436C394.063 289.683 390.126 290.472 386.713 292.83C384.593 294.295 382.967 296.18 381.88 298.433C380.593 301.102 380.057 304.308 380.287 307.961C380.322 308.509 380.571 309.008 380.989 309.366C381.409 309.726 381.944 309.896 382.495 309.846L389.579 309.199C390.579 309.108 391.37 308.284 391.419 307.282C391.53 305.032 392.507 301.171 397.8 300.596C401.834 300.159 403.765 302.929 404.409 304.141C405.457 306.113 405.461 308.565 404.419 310.7C402.818 313.98 399.394 314.772 397.495 314.953C395.312 315.16 393.697 317.096 393.895 319.267L394.591 326.89C394.693 328.003 395.681 328.826 396.794 328.725L403.696 328.095C404.809 327.993 405.632 327.005 405.53 325.892L405.384 324.29C405.38 324.252 405.401 324.216 405.437 324.2C406.95 323.509 409.86 321.906 412.342 318.943C415.51 315.16 416.869 310.527 416.38 305.173C415.681 297.51 411.471 293.677 408.062 291.81Z" fill="#F5F5F5"/>
<path d="M400.765 330.298L400.161 330.353C397.275 330.617 395.141 333.179 395.404 336.066C395.668 338.953 398.23 341.086 401.117 340.823L401.721 340.768C404.607 340.504 406.741 337.942 406.478 335.055C406.214 332.168 403.651 330.034 400.765 330.298Z" fill="#F5F5F5"/>
<path d="M124.38 129.071C121.718 126.448 118.232 125.037 115.857 124.59C113.633 124.172 110.294 123.907 107.018 125.021C104.983 125.713 103.248 126.855 101.862 128.415C100.22 130.263 99.0589 132.713 98.4109 135.697C98.3139 136.145 98.3999 136.602 98.6539 136.985C98.9089 137.37 99.2989 137.628 99.7529 137.714L105.585 138.81C106.408 138.965 107.231 138.484 107.499 137.691C108.101 135.911 109.766 133.036 114.144 133.781C117.48 134.351 118.398 137.014 118.639 138.133C119.03 139.955 118.474 141.923 117.151 143.398C115.118 145.665 112.19 145.52 110.625 145.231C108.826 144.9 107.089 146.084 106.753 147.872L105.573 154.147C105.401 155.063 106.006 155.949 106.922 156.121L112.604 157.189C113.52 157.361 114.406 156.756 114.578 155.84L114.826 154.522C114.832 154.49 114.857 154.467 114.889 154.462C116.261 154.252 118.961 153.63 121.628 151.819C125.033 149.506 127.18 146.099 128.008 141.691C129.194 135.382 126.69 131.346 124.38 129.071Z" fill="#F5F5F5"/>
<path d="M109.748 158.289L109.251 158.196C106.875 157.749 104.578 159.319 104.131 161.695C103.684 164.071 105.254 166.368 107.63 166.815L108.127 166.908C110.503 167.355 112.8 165.785 113.247 163.409C113.693 161.033 112.124 158.736 109.748 158.289Z" fill="#F5F5F5"/>
<path d="M397.509 131.075C393.588 128.908 389.108 128.405 386.222 128.657C383.519 128.893 379.579 129.666 376.157 132.011C374.031 133.467 372.398 135.346 371.302 137.595C370.004 140.259 369.455 143.462 369.671 147.117C369.703 147.665 369.951 148.165 370.367 148.525C370.786 148.887 371.32 149.059 371.871 149.011L378.957 148.392C379.957 148.305 380.751 147.484 380.805 146.482C380.925 144.232 381.917 140.376 387.212 139.821C391.248 139.4 393.168 142.178 393.807 143.393C394.847 145.369 394.841 147.822 393.791 149.952C392.177 153.226 388.75 154.004 386.85 154.177C384.666 154.376 383.043 156.305 383.233 158.477L383.899 166.102C383.996 167.216 384.981 168.042 386.095 167.945L392.999 167.342C394.113 167.245 394.939 166.26 394.842 165.146L394.702 163.544C394.699 163.506 394.72 163.47 394.756 163.454C396.272 162.769 399.188 161.178 401.682 158.225C404.865 154.455 406.242 149.827 405.774 144.471C405.106 136.806 400.91 132.955 397.509 131.075Z" fill="#EBEBEB"/>
<path d="M390.059 169.534L389.455 169.587C386.568 169.839 384.424 172.393 384.676 175.281C384.928 178.169 387.482 180.313 390.37 180.06L390.974 180.007C393.861 179.755 396.005 177.201 395.753 174.313C395.501 171.426 392.947 169.282 390.059 169.534Z" fill="#EBEBEB"/>
<path d="M184.456 361.509C179.549 359.198 174.096 358.942 170.63 359.473C167.383 359.97 162.684 361.214 158.733 364.316C156.279 366.242 154.453 368.64 153.306 371.443C151.947 374.763 151.535 378.677 152.083 383.075C152.165 383.735 152.503 384.32 153.035 384.722C153.569 385.126 154.228 385.293 154.89 385.191L163.403 383.887C164.604 383.703 165.499 382.649 165.486 381.435C165.455 378.708 166.351 373.97 172.705 372.885C177.548 372.06 180.086 375.265 180.954 376.683C182.366 378.989 182.551 381.952 181.449 384.609C179.756 388.691 175.676 389.901 173.395 390.259C170.772 390.671 168.963 393.128 169.362 395.738L170.765 404.898C170.97 406.236 172.225 407.157 173.563 406.953L181.857 405.683C183.195 405.478 184.116 404.223 183.912 402.885L183.617 400.96C183.61 400.914 183.633 400.869 183.675 400.847C185.453 399.9 188.851 397.749 191.632 393.985C195.182 389.18 196.482 383.481 195.497 377.046C194.084 367.837 188.713 363.514 184.456 361.509Z" fill="#EBEBEB"/>
<path d="M178.474 408.559L177.748 408.67C174.279 409.201 171.889 412.456 172.421 415.924C172.953 419.392 176.207 421.783 179.675 421.251L180.401 421.14C183.87 420.609 186.26 417.355 185.728 413.886C185.197 410.418 181.942 408.028 178.474 408.559Z" fill="#EBEBEB"/>
<path d="M109.808 188.164C102.908 184.93 95.2469 184.583 90.3769 185.338C85.8169 186.045 79.2169 187.804 73.6739 192.171C70.2309 194.884 67.6719 198.257 66.0669 202.198C64.1659 206.866 63.5979 212.366 64.3779 218.544C64.4949 219.471 64.9709 220.292 65.7189 220.855C66.4699 221.421 67.3959 221.654 68.3259 221.51L80.2829 219.657C81.9699 219.396 83.2249 217.912 83.2029 216.206C83.1519 212.374 84.3989 205.716 93.3229 204.175C100.125 203.004 103.699 207.501 104.922 209.49C106.912 212.727 107.179 216.889 105.638 220.625C103.269 226.364 97.5409 228.074 94.3359 228.583C90.6509 229.168 88.1159 232.625 88.6839 236.291L90.6779 249.158C90.9689 251.037 92.7349 252.329 94.6139 252.038L106.264 250.233C108.143 249.942 109.435 248.176 109.144 246.297L108.725 243.594C108.715 243.529 108.747 243.467 108.806 243.435C111.302 242.1 116.07 239.07 119.968 233.775C124.944 227.015 126.756 219.005 125.356 209.967C123.351 197.03 115.794 190.97 109.808 188.164Z" fill="#EBEBEB"/>
<path d="M101.521 254.282L100.502 254.44C95.63 255.195 92.28 259.773 93.035 264.645C93.79 269.517 98.368 272.867 103.24 272.112L104.259 271.954C109.131 271.199 112.481 266.621 111.726 261.749C110.971 256.877 106.393 253.527 101.521 254.282Z" fill="#EBEBEB"/>
<path d="M278.218 106.669L287.231 108.171C291.662 113.467 297.727 117.52 305.002 119.456C322.16 124.022 340.313 114.601 346.491 97.956C353.63 78.723 342.728 57.484 322.751 52.182C305.792 47.681 287.848 56.816 281.486 73.168C278.329 81.283 278.421 89.782 281.066 97.316L281.055 97.3L278.218 106.669Z" fill="white"/>
<path d="M278.218 106.669C278.218 106.669 278.264 106.473 278.378 106.073C278.499 105.652 278.671 105.056 278.894 104.282C279.367 102.668 280.058 100.314 280.951 97.27L281.013 97.059L281.139 97.24L281.15 97.256L280.963 97.351C279.523 93.281 278.297 87.475 279.321 80.626C279.818 77.218 280.911 73.611 282.673 70.033C284.464 66.473 287.016 62.997 290.317 59.983C293.628 56.987 297.699 54.482 302.305 52.85C306.9 51.228 312.044 50.417 317.269 50.976C322.484 51.489 327.745 53.226 332.459 56.132C337.197 59.011 341.242 63.229 344.139 68.213C345.671 70.703 346.694 73.433 347.568 76.154C347.767 76.841 347.896 77.545 348.063 78.237C348.199 78.935 348.426 79.615 348.485 80.323C348.57 81.026 348.655 81.727 348.74 82.426L348.861 83.473L348.878 84.524C349.082 90.124 347.885 95.592 345.712 100.414C343.556 105.264 340.213 109.329 336.459 112.499C332.684 115.669 328.419 117.916 324.124 119.249C319.819 120.568 315.5 120.994 311.504 120.721C310.509 120.605 309.531 120.491 308.569 120.379C307.611 120.244 306.69 119.991 305.775 119.808C303.95 119.412 302.246 118.812 300.648 118.167C294.231 115.532 289.879 111.519 287.151 108.238L287.213 108.273C284.31 107.763 282.054 107.367 280.503 107.094C279.761 106.96 279.191 106.857 278.785 106.784C278.402 106.712 278.218 106.669 278.218 106.669C278.218 106.669 278.433 106.693 278.83 106.752C279.244 106.815 279.825 106.904 280.58 107.02C282.121 107.263 284.362 107.616 287.247 108.07L287.284 108.076L287.309 108.106C290.057 111.339 294.404 115.285 300.774 117.859C302.36 118.489 304.05 119.075 305.859 119.458C306.766 119.634 307.678 119.881 308.626 120.01C309.578 120.117 310.546 120.225 311.53 120.336C315.482 120.589 319.748 120.152 323.996 118.836C328.234 117.506 332.439 115.276 336.156 112.139C339.853 109.003 343.142 104.99 345.259 100.207C347.394 95.451 348.568 90.06 348.362 84.544L348.345 83.508L348.225 82.476C348.141 81.788 348.057 81.097 347.973 80.405C347.915 79.708 347.689 79.038 347.555 78.351C347.39 77.67 347.263 76.976 347.067 76.299C346.204 73.619 345.198 70.93 343.687 68.477C340.833 63.567 336.851 59.41 332.185 56.571C327.543 53.705 322.358 51.987 317.22 51.474C312.072 50.915 306.998 51.706 302.461 53.296C297.913 54.896 293.887 57.358 290.608 60.307C287.339 63.274 284.805 66.699 283.02 70.211C281.263 73.741 280.163 77.307 279.653 80.679C278.602 87.455 279.774 93.223 281.162 97.283L281.415 98.024L280.975 97.378L280.964 97.362L281.152 97.333C280.216 100.335 279.492 102.656 278.995 104.247C278.748 105.027 278.559 105.625 278.424 106.049C278.296 106.453 278.218 106.669 278.218 106.669Z" fill="#318EFB"/>
<path d="M321.261 69.774C318.594 68.006 315.433 67.392 313.364 67.406C311.427 67.419 308.577 67.744 306.007 69.217C304.41 70.132 303.14 71.376 302.231 72.914C301.154 74.736 300.58 76.985 300.525 79.599C300.517 79.991 300.664 80.361 300.94 80.641C301.217 80.922 301.588 81.076 301.983 81.073L307.063 81.038C307.78 81.033 308.392 80.494 308.488 79.784C308.702 78.189 309.63 75.501 313.431 75.409C316.328 75.341 317.536 77.428 317.922 78.329C318.549 79.796 318.405 81.541 317.535 82.998C316.198 85.236 313.714 85.594 312.352 85.608C310.786 85.624 309.52 86.905 309.531 88.462L309.568 93.929C309.573 94.727 310.227 95.372 311.026 95.367L315.976 95.333C316.774 95.328 317.419 94.674 317.414 93.875L317.406 92.726C317.406 92.698 317.423 92.674 317.449 92.665C318.568 92.264 320.734 91.299 322.679 89.339C325.161 86.837 326.406 83.622 326.38 79.782C326.34 74.289 323.574 71.307 321.261 69.774Z" fill="#318EFB"/>
<path d="M313.754 96.726L313.321 96.729C311.251 96.743 309.578 98.439 309.592 100.509C309.606 102.579 311.302 104.252 313.372 104.238L313.805 104.235C315.875 104.221 317.548 102.525 317.534 100.455C317.52 98.385 315.824 96.712 313.754 96.726Z" fill="#318EFB"/>
<path d="M327.549 151.747C303.938 135.866 275.865 130.208 257.466 130.208C240.235 130.208 214.877 132.926 191.925 145.872C177.671 153.913 166.298 164.898 158.121 178.523C148.436 194.661 143.194 214.629 142.541 237.874C142.443 241.361 143.731 244.661 146.169 247.168C148.618 249.687 151.901 251.074 155.415 251.074H200.596C206.971 251.074 212.452 246.317 213.343 240.01C215.347 225.842 223.756 201.986 257.567 201.403C283.324 200.961 293.952 219.607 297.326 227.646C302.817 240.727 301.425 256.24 293.6 269.142C281.577 288.964 259.46 291.999 247.347 292.043C233.417 292.094 222.083 303.403 222.083 317.252V365.87C222.083 372.97 227.859 378.746 234.959 378.746H278.979C286.079 378.746 291.855 372.97 291.855 365.87V355.655C291.855 355.41 292.008 355.198 292.244 355.115C302.216 351.616 321.545 343.162 338.955 325.852C361.181 303.755 372.45 275.234 372.45 241.083C372.451 192.207 348.033 165.525 327.549 151.747Z" fill="#318EFB"/>
<path d="M255.862 401.425H259.415C276.897 401.425 291.12 415.648 291.12 433.13C291.12 450.612 276.897 464.835 259.415 464.835H255.862C238.38 464.835 224.157 450.612 224.157 433.13C224.157 415.647 238.38 401.425 255.862 401.425Z" fill="#263238"/>
<path d="M234.79 388.147H278.792C285.889 388.147 291.663 382.554 291.663 375.679V355.802C291.663 355.565 291.816 355.359 292.052 355.279C297.253 353.511 304.53 350.269 312.763 345.208C284.649 345.011 233.404 344.724 221.918 345.143V375.679C221.919 382.554 227.693 388.147 234.79 388.147Z" fill="#263238"/>
<path d="M271.031 167.901L242.794 85.9C236.831 65.368 219.912 51.725 199.553 58.255L197.707 58.968C179.128 66.146 169.167 86.384 174.829 105.48C180.096 123.247 186.144 142.81 189.83 152.01C197.46 171.055 217.435 165.709 217.435 165.709C217.479 165.694 221.881 178.403 223.806 184.108L234.148 194.327L238.42 189.66L271.031 167.901Z" fill="#FFBF9D"/>
<path d="M217.434 165.709C217.434 165.709 229.769 161.757 239.504 148.716C239.504 148.716 239.068 165.419 219.307 171.073L217.434 165.709Z" fill="#FF9A6C"/>
<path d="M188.644 118.429C189.15 119.892 190.807 120.669 192.344 120.168C193.878 119.668 194.715 118.079 194.209 116.616C193.703 115.153 192.046 114.374 190.511 114.874C188.974 115.374 188.138 116.966 188.644 118.429Z" fill="#263238"/>
<path d="M181.848 111.431C182.324 111.656 183.802 109.324 186.747 108.196C189.671 107.026 192.414 107.706 192.593 107.222C192.688 107.002 192.095 106.492 190.891 106.171C189.703 105.848 187.869 105.794 186.04 106.51C184.212 107.228 182.932 108.497 182.313 109.53C181.677 110.573 181.619 111.336 181.848 111.431Z" fill="#263238"/>
<path d="M213.232 108.679C213.709 108.904 215.191 106.572 218.132 105.444C221.056 104.275 223.799 104.954 223.979 104.47C224.073 104.25 223.484 103.74 222.276 103.42C221.088 103.096 219.254 103.043 217.425 103.758C215.597 104.477 214.317 105.746 213.697 106.778C213.064 107.821 213.005 108.584 213.232 108.679Z" fill="#263238"/>
<path d="M209.119 127.648C209.068 127.476 207.118 127.866 204.01 128.631C203.229 128.844 202.461 128.97 202.136 128.506C201.75 128.032 201.751 127.101 201.777 126.086C201.781 123.996 201.784 121.805 201.788 119.51C201.727 110.177 201.373 102.621 200.997 102.626C200.621 102.633 200.366 110.201 200.427 119.534C200.461 121.829 200.49 124.016 200.522 126.108C200.568 127.071 200.453 128.228 201.271 129.206C201.69 129.689 202.399 129.883 202.93 129.827C203.469 129.788 203.894 129.633 204.274 129.512C207.318 128.521 209.172 127.82 209.119 127.648Z" fill="#263238"/>
<path d="M206.432 92.145C207.122 92.741 209.67 90.849 213.115 89.433C216.532 87.946 219.664 87.435 219.717 86.525C219.728 86.097 218.881 85.647 217.423 85.512C215.976 85.372 213.927 85.616 211.868 86.485C209.812 87.357 208.21 88.658 207.302 89.794C206.384 90.934 206.116 91.855 206.432 92.145Z" fill="#263238"/>
<path d="M178.372 102.837C179.235 103.281 181.385 101.695 184.269 100.593C187.119 99.406 189.783 99.07 190.088 98.158C190.209 97.726 189.575 97.196 188.269 96.955C186.979 96.711 185.022 96.846 183.051 97.631C181.081 98.419 179.582 99.665 178.829 100.724C178.061 101.793 177.98 102.609 178.372 102.837Z" fill="#263238"/>
<path d="M246.391 99.746C246.662 99.479 258.037 90.777 262.674 104.021C267.31 117.265 253.058 119.188 252.901 118.817C252.746 118.445 246.391 99.746 246.391 99.746Z" fill="#FFBF9D"/>
<path d="M255.191 112.383C255.234 112.32 255.478 112.463 255.931 112.506C256.372 112.547 257.068 112.438 257.668 111.937C258.887 110.934 259.288 108.3 258.516 105.89C258.128 104.673 257.473 103.614 256.714 102.813C255.97 101.986 255.107 101.528 254.358 101.65C253.6 101.734 253.249 102.33 253.218 102.759C253.17 103.191 253.347 103.426 253.284 103.474C253.259 103.52 252.922 103.351 252.837 102.767C252.8 102.484 252.845 102.118 253.068 101.755C253.295 101.385 253.716 101.09 254.225 100.971C255.271 100.684 256.519 101.302 257.354 102.18C258.246 103.044 259.01 104.225 259.446 105.592C260.295 108.29 259.804 111.266 258.083 112.49C257.236 113.06 256.361 113.05 255.85 112.878C255.326 112.694 255.153 112.423 255.191 112.383Z" fill="#FF9A6C"/>
<path d="M219.115 126.313C218.648 126.44 219.665 129.497 217.775 132.541C215.892 135.591 212.52 136.337 212.639 136.773C212.661 136.979 213.563 137.124 214.951 136.701C216.315 136.296 218.139 135.204 219.296 133.342C220.446 131.477 220.538 129.473 220.224 128.185C219.912 126.869 219.318 126.226 219.115 126.313Z" fill="#263238"/>
<path d="M141.76 96.179C141.696 95.326 142.037 94.484 142.588 93.829C143.789 92.399 145.577 91.903 147.255 91.281C151.431 89.734 155.218 87.192 158.293 83.972C156.755 83.77 155.252 83.396 153.852 82.727C150.961 81.347 148.58 78.512 148.552 75.309C148.547 74.708 148.661 74.036 149.144 73.678C149.911 73.111 150.961 73.69 151.796 74.149C154.543 75.657 156.697 75.961 159.533 74.628C161.294 73.8 162.919 72.767 164.04 71.367C164.076 71.287 164.104 71.203 164.141 71.124C164.579 70.171 165.012 69.256 165.443 68.367C165.443 68.364 165.445 68.362 165.445 68.359L165.444 68.364C168.683 61.671 171.759 56.741 175.543 53.413C181.088 48.535 191.523 43.673 198.883 43.067C206.244 42.461 214.22 45.795 217.589 52.367C220.242 47.841 225.924 45.87 231.178 46.098L231.276 46.007C237.045 46.028 241.864 50.417 245.218 55.11C245.401 55.367 245.575 55.631 245.754 55.891C248.455 58.028 251.639 59.551 255.024 60.197C255.621 60.311 256.313 60.464 256.574 61.013C256.833 61.557 256.521 62.193 256.175 62.687C255.256 64 254.029 65.082 252.635 65.872C253.541 66.949 254.516 67.962 255.603 68.875C256.527 69.651 257.627 70.582 257.481 71.779C257.368 72.705 256.481 73.382 255.565 73.562C254.65 73.741 253.708 73.531 252.799 73.323C253.853 74.49 254.906 75.658 255.96 76.825C254.22 77.801 252.247 78.329 250.254 78.417C250.887 83.688 253.258 93.028 253.167 96.784C249.676 98.083 248.688 98.002 247.122 99.215C245.099 100.783 247.402 104.532 244.014 104.43C242.289 104.378 237.931 99.445 236.877 98.077C229.89 89.002 224.897 78.403 222.334 67.241C219.414 65.726 216.2 64.78 212.925 64.47L213.227 64.596C207.153 64.623 200.38 64.931 196.141 69.281C192.853 72.655 191.968 77.613 190.152 81.96C186.711 90.199 181.498 95.785 173.212 99.112C174.512 105.222 177.654 114.857 179.29 120.41L170.789 111.137L170.801 111.182C170.199 110.675 169.662 110.14 169.134 109.6L168.962 109.44L168.954 109.415C168.112 108.546 167.292 107.667 166.328 106.854C166.316 106.876 166.304 106.897 166.292 106.919C164.256 110.566 158.499 108.115 159.71 104.117C159.95 103.324 160.305 102.568 160.774 101.881C159.871 103.624 158.071 104.941 156.109 105.021C154.147 105.101 152.142 103.793 151.646 101.893C151.307 100.596 151.811 99.153 152.773 98.254C150.452 99.278 147.828 99.619 145.33 99.165C143.691 98.866 141.902 98.058 141.76 96.179Z" fill="#263238"/>
<path d="M212.277 56.738C212.256 56.802 213.269 56.964 214.846 57.83C216.41 58.694 218.44 60.442 220.085 63.214C220.912 64.588 221.687 66.178 222.314 67.962C222.95 69.743 223.48 71.704 224.053 73.765C224.632 75.824 225.237 78.001 226.146 80.168C226.6 81.249 227.129 82.326 227.764 83.365C228.396 84.382 229.108 85.478 230.276 86.134C231.212 86.673 232.442 86.626 233.333 86.09C234.241 85.578 234.92 84.759 235.303 83.834C236.037 81.941 235.698 79.986 235.434 78.252L235.045 78.444C236.224 79.671 237.415 80.875 238.831 81.672C240.233 82.482 241.879 82.764 243.322 82.396C244.041 82.213 244.704 81.855 245.196 81.343C245.701 80.831 245.967 80.169 246.082 79.528C246.18 78.882 246.121 78.231 245.888 77.666C245.653 77.103 245.236 76.636 244.735 76.379L244.594 76.635C246.687 77.81 248.586 78.169 249.855 78.291C250.495 78.351 250.988 78.347 251.321 78.338C251.653 78.321 251.823 78.303 251.823 78.29C251.822 78.275 251.65 78.267 251.321 78.257C250.991 78.241 250.502 78.218 249.872 78.135C248.623 77.967 246.766 77.567 244.74 76.383L244.599 76.638C245.494 77.099 245.959 78.298 245.742 79.471C245.629 80.052 245.381 80.645 244.932 81.086C244.49 81.536 243.885 81.859 243.226 82.019C241.897 82.344 240.36 82.076 239.041 81.301C237.7 80.535 236.544 79.362 235.372 78.13L234.875 77.607L234.983 78.323C235.246 80.056 235.539 81.943 234.864 83.655C234.522 84.484 233.896 85.227 233.101 85.673C232.31 86.136 231.315 86.172 230.503 85.713C229.486 85.149 228.789 84.119 228.169 83.117C227.549 82.104 227.028 81.051 226.579 79.988C225.68 77.86 225.068 75.7 224.479 73.647C223.895 71.59 223.349 69.626 222.688 67.828C222.036 66.028 221.232 64.422 220.373 63.037C218.665 60.244 216.554 58.494 214.935 57.668C213.301 56.836 212.277 56.738 212.277 56.738Z" fill="#455A64"/>
<path d="M158.996 96.699C158.993 96.706 159.062 96.733 159.198 96.776C159.362 96.825 159.562 96.885 159.806 96.958C160.073 97.042 160.407 97.132 160.812 97.195C161.214 97.269 161.677 97.368 162.209 97.4C164.309 97.621 167.493 97.454 171.026 95.97C174.528 94.51 178.37 91.734 181.195 87.534C184.085 83.388 186.036 78.092 187.159 72.42C187.742 69.578 188.042 66.769 188.526 64.103C189.001 61.438 189.666 58.895 190.777 56.681C191.865 54.465 193.371 52.581 195.165 51.327C196.052 50.683 197.028 50.264 197.989 49.951C198.962 49.665 199.936 49.539 200.866 49.519C202.733 49.491 204.405 49.939 205.761 50.528C207.124 51.124 208.168 51.893 208.946 52.593C210.454 54.063 210.906 55.189 210.969 55.145C210.977 55.141 210.947 55.075 210.882 54.947C210.8 54.795 210.702 54.611 210.581 54.386C210.304 53.901 209.815 53.228 209.075 52.458C208.304 51.724 207.254 50.916 205.87 50.282C204.493 49.656 202.786 49.172 200.862 49.179C199.903 49.189 198.896 49.308 197.883 49.595C196.884 49.908 195.858 50.341 194.936 51C193.066 52.285 191.504 54.222 190.38 56.483C189.231 58.745 188.547 61.335 188.063 64.019C187.57 66.707 187.266 69.51 186.688 72.326C185.574 77.956 183.655 83.188 180.83 87.283C178.067 91.433 174.326 94.176 170.893 95.658C167.434 97.158 164.306 97.375 162.225 97.214C160.126 97.045 159.011 96.631 158.996 96.699Z" fill="#455A64"/>
<path d="M154.234 88.808C154.228 88.841 154.535 88.924 155.099 89.047C155.661 89.18 156.493 89.296 157.524 89.367C158.556 89.446 159.794 89.424 161.158 89.289C162.519 89.13 164.005 88.844 165.517 88.374C167.025 87.887 168.404 87.265 169.609 86.612C170.802 85.936 171.826 85.243 172.625 84.584C173.427 83.932 174.04 83.359 174.423 82.926C174.814 82.5 175.017 82.256 174.993 82.233C174.928 82.169 174.052 83.097 172.417 84.315C171.604 84.931 170.579 85.582 169.397 86.223C168.204 86.842 166.848 87.439 165.37 87.916C163.888 88.376 162.436 88.669 161.104 88.85C159.769 89.006 158.555 89.063 157.537 89.028C155.5 88.973 154.25 88.719 154.234 88.808Z" fill="#455A64"/>
<path d="M190.502 227.426C190.329 227.476 192.596 238.828 194.816 250.603H195.518C193.298 238.828 190.676 227.376 190.502 227.426Z" fill="#263238"/>
<path d="M200.083 251.172C206.501 251.172 212.409 246.548 213.306 240.25C215.323 226.102 223.396 202.155 257.43 201.573C283.357 201.131 294.269 219.483 297.326 227.645C302.179 240.602 301.576 256.33 293.7 269.213C281.598 289.006 259.335 292.036 247.142 292.081C233.12 292.132 221.712 303.424 221.712 317.253V370.116L291.946 368.795V355.6C291.946 355.355 292.1 355.144 292.338 355.061C300.893 352.083 314.457 346.438 329.719 334.131L325.147 273.251C325.147 273.251 338.513 247.562 337.851 241.782C331.799 188.979 313.841 159.101 306.542 156.314C298.347 153.186 266.707 154.709 266.707 154.709C266.707 154.709 253.042 180.028 233.871 182.833C223.204 184.394 219.309 171.073 219.309 171.073L194.53 185.6C176.895 194.495 173.473 229.103 173.149 251.172H200.083Z" fill="#455A64"/>
<g opacity="0.3">
<path d="M281.475 282.276C295.632 285.88 309.589 290.439 323.746 294.043C324.796 294.31 325.915 294.619 326.624 295.439C327.666 296.646 327.432 298.478 326.965 300.003C325.476 304.87 322.264 309.076 318.441 312.435C315.361 315.141 311.671 317.424 307.583 317.743C303.031 318.098 298.655 315.987 294.806 313.531C284.964 307.25 276.565 298.072 271.287 287.658C271.287 287.658 274.606 286.292 277.146 284.934C279.505 283.673 281.475 282.276 281.475 282.276Z" fill="black"/>
</g>
<path d="M297.036 228.012C302.697 241.074 301.261 256.564 293.195 269.447C288.718 276.598 283.018 281.702 276.801 285.126C283.497 292.41 290.294 298.827 297.013 303.596C304.244 308.727 320.91 307.268 327.229 296.035C335.025 282.175 335.677 246.767 335.677 246.767C337.158 225.421 337.158 225.421 337.158 225.421L293.561 218.743L293.211 219.938C295.081 222.742 296.183 226.044 297.036 228.012Z" fill="#FFBF9D"/>
<path d="M221.121 219.042L218.639 222.955C216.752 224.257 214.956 223.542 213.79 221.123L186.952 180.273L193.49 176.115L223.132 215.289C223.132 215.289 223.55 217.366 221.121 219.042Z" fill="#455A64"/>
<path d="M159.116 179.572C153.862 176.607 149.455 172.034 146.728 166.157C143.369 158.919 143.03 150.805 145.774 143.311C148.518 135.817 154.015 129.84 161.255 126.481C176.198 119.547 193.997 126.063 200.932 141.007C204.291 148.246 204.629 156.36 201.886 163.854C199.142 171.348 193.645 177.324 186.406 180.684C177.339 184.89 167.22 184.146 159.116 179.572ZM187.559 129.333C179.997 125.065 170.557 124.371 162.097 128.296C155.343 131.43 150.213 137.007 147.653 143.999C145.093 150.991 145.409 158.562 148.543 165.316C151.677 172.071 157.253 177.2 164.246 179.76C171.238 182.32 178.808 182.004 185.563 178.87C192.317 175.736 197.447 170.159 200.006 163.167C202.567 156.175 202.25 148.605 199.116 141.85C196.573 136.367 192.46 132.099 187.559 129.333Z" fill="#263238"/>
<path d="M160.389 178.319C155.135 175.354 150.728 170.781 148.001 164.904C144.642 157.666 144.303 149.552 147.047 142.058C149.791 134.564 155.288 128.587 162.528 125.228C177.471 118.294 195.27 124.81 202.205 139.755C205.564 146.994 205.902 155.108 203.159 162.602C200.416 170.096 194.918 176.073 187.679 179.432C178.611 183.637 168.492 182.893 160.389 178.319ZM188.831 128.079C181.269 123.811 171.829 123.117 163.369 127.042C156.615 130.176 151.485 135.753 148.925 142.745C146.365 149.737 146.681 157.308 149.815 164.062C152.949 170.817 158.525 175.946 165.518 178.506C172.51 181.066 180.08 180.75 186.835 177.616C193.589 174.482 198.719 168.905 201.278 161.913C203.838 154.921 203.522 147.35 200.388 140.596C197.845 135.113 193.733 130.845 188.831 128.079Z" fill="#455A64"/>
<path d="M199.952 152.748C199.941 152.748 199.931 152.578 199.921 152.257C199.897 151.936 199.935 151.462 199.864 150.856C199.796 149.641 199.524 147.888 198.874 145.814C198.555 144.775 198.102 143.672 197.566 142.512C196.986 141.375 196.348 140.163 195.523 138.985C194.718 137.797 193.793 136.599 192.717 135.465C191.649 134.327 190.466 133.213 189.131 132.231C187.803 131.242 186.406 130.418 184.995 129.748C183.576 129.093 182.146 128.606 180.761 128.233C177.975 127.532 175.366 127.339 173.197 127.466C171.026 127.586 169.287 127.928 168.114 128.255C167.519 128.389 167.078 128.566 166.767 128.647C166.459 128.739 166.295 128.783 166.291 128.772C166.287 128.762 166.443 128.698 166.745 128.586C167.05 128.485 167.487 128.288 168.08 128.135C169.248 127.77 170.994 127.391 173.184 127.24C175.372 127.083 178.011 127.253 180.834 127.947C182.238 128.317 183.689 128.804 185.128 129.464C186.559 130.139 187.978 130.973 189.324 131.975C190.675 132.969 191.871 134.098 192.947 135.252C194.032 136.401 194.962 137.615 195.769 138.821C196.596 140.015 197.232 141.244 197.807 142.398C198.338 143.574 198.783 144.693 199.092 145.747C199.72 147.85 199.96 149.625 199.99 150.849C200.043 151.46 199.984 151.937 199.987 152.259C199.974 152.58 199.963 152.748 199.952 152.748Z" fill="white"/>
<path d="M168.776 177.068C168.797 176.994 170.161 177.502 172.462 177.816C172.751 177.851 173.053 177.887 173.366 177.925C173.68 177.96 174.011 177.961 174.351 177.982C175.031 178.037 175.76 178.001 176.525 177.986C178.054 177.895 179.727 177.663 181.438 177.214C183.144 176.742 184.707 176.101 186.075 175.412C186.744 175.04 187.392 174.705 187.953 174.316C188.236 174.127 188.522 173.961 188.776 173.772C189.028 173.582 189.27 173.399 189.503 173.224C191.334 171.796 192.259 170.672 192.314 170.725C192.331 170.739 192.099 171.015 191.663 171.504C191.449 171.753 191.178 172.047 190.83 172.357C190.487 172.67 190.115 173.052 189.644 173.402C189.413 173.585 189.172 173.775 188.922 173.973C188.669 174.169 188.384 174.343 188.1 174.539C187.539 174.943 186.888 175.291 186.213 175.675C184.835 176.388 183.252 177.047 181.523 177.525C179.788 177.981 178.089 178.206 176.54 178.282C175.764 178.289 175.026 178.315 174.338 178.248C173.994 178.221 173.661 178.214 173.343 178.172C173.027 178.127 172.723 178.083 172.432 178.041C171.849 177.976 171.336 177.832 170.881 177.733C170.425 177.64 170.042 177.522 169.732 177.414C169.108 177.211 168.769 177.089 168.776 177.068Z" fill="white"/>
<path d="M189.332 157.933C189.269 157.995 185.374 154.096 180.635 149.227C175.894 144.356 172.103 140.359 172.166 140.297C172.229 140.235 176.123 144.133 180.864 149.004C185.604 153.873 189.395 157.872 189.332 157.933Z" fill="white"/>
<path d="M184.734 165.759C184.726 165.766 184.628 165.671 184.45 165.482C184.252 165.266 183.998 164.99 183.684 164.647C183 163.885 182.055 162.834 180.899 161.548C178.551 158.929 175.297 155.321 171.66 151.375C168.021 147.428 164.688 143.892 162.268 141.339C161.08 140.083 160.109 139.056 159.406 138.312C159.09 137.971 158.835 137.695 158.636 137.481C158.463 137.288 158.375 137.184 158.383 137.176C158.391 137.168 158.494 137.258 158.682 137.436C158.892 137.64 159.161 137.902 159.495 138.225C160.197 138.915 161.2 139.925 162.431 141.182C164.893 143.696 168.254 147.209 171.895 151.158C175.534 155.106 178.763 158.74 181.069 161.399C182.222 162.728 183.147 163.81 183.778 164.566C184.074 164.925 184.313 165.215 184.499 165.44C184.661 165.642 184.742 165.751 184.734 165.759Z" fill="white"/>
<g opacity="0.3">
<path d="M160.374 129.168L197.057 169.016C197.057 169.016 194.088 173.169 191.368 174.976L153.911 134.197C153.911 134.197 156.611 130.943 160.374 129.168Z" fill="white"/>
</g>
<g opacity="0.3">
<path d="M150.757 138.791L186.836 177.615C186.836 177.615 187.171 177.798 184.685 178.426L149.738 140.762C149.738 140.762 149.921 139.818 150.757 138.791Z" fill="white"/>
</g>
<path d="M245.729 202.847C238.023 196.659 219.138 181.524 218.275 181.121C217.189 180.613 200.568 174.708 197.384 176.605C194.2 178.502 185.664 189.217 185.664 189.217C185.664 189.217 186.475 195.881 193.92 191.112C199.601 187.474 200.482 186.909 200.582 186.845C200.576 186.849 200.571 186.852 200.571 186.852L208.486 188.701C208.486 188.701 198.832 192.733 196.79 194.853C194.748 196.973 191.519 205.09 193.533 206.959C195.547 208.828 197.886 208.988 197.886 208.988C197.886 208.988 193.901 214.648 200.97 218.065C200.97 218.065 202.002 222.823 205.489 224.688C208.976 226.552 215.473 225.893 215.473 225.893C215.473 225.893 218.486 224.111 216.248 221.157C214.01 218.203 209.881 217.794 209.881 217.794L214.998 214.809C214.998 214.809 217.66 215.624 221.604 218.671C221.604 218.671 226.276 212.69 230.941 209.309C236.177 205.515 245.729 202.847 245.729 202.847Z" fill="#FFBF9D"/>
<path d="M212.971 205.361C212.968 205.338 212.697 205.343 212.211 205.406C211.725 205.468 211.027 205.607 210.189 205.875C208.522 206.397 206.286 207.553 204.453 209.546C202.619 211.54 201.655 213.865 201.274 215.57C201.077 216.427 200.997 217.134 200.976 217.624C200.954 218.113 200.972 218.384 200.995 218.385C201.067 218.391 201.082 217.303 201.533 215.636C201.973 213.979 202.951 211.739 204.731 209.802C206.512 207.866 208.662 206.704 210.276 206.127C211.9 205.538 212.983 205.432 212.971 205.361Z" fill="#FF9A6C"/>
<path d="M213.311 196.748C213.308 196.722 213.02 196.744 212.499 196.805C212.238 196.832 211.92 196.875 211.557 196.959C211.193 197.039 210.773 197.108 210.325 197.252C209.417 197.492 208.364 197.885 207.239 198.414C206.125 198.965 204.944 199.665 203.8 200.535C202.666 201.419 201.687 202.382 200.87 203.319C200.07 204.272 199.422 205.189 198.958 206.006C198.705 206.402 198.53 206.791 198.36 207.122C198.186 207.452 198.063 207.748 197.97 207.993C197.777 208.481 197.683 208.753 197.707 208.763C197.776 208.793 198.199 207.713 199.185 206.144C199.671 205.356 200.332 204.47 201.131 203.547C201.948 202.639 202.916 201.702 204.029 200.834C205.152 199.98 206.443 199.019 207.53 198.46C208.627 197.923 209.513 197.776 210.399 197.507C212.171 196.956 213.323 196.822 213.311 196.748Z" fill="#FF9A6C"/>
<path d="M214.757 186.856C214.767 186.815 214.368 186.66 213.682 186.614C213 186.565 212.031 186.672 211.059 187.083C209.744 187.645 209.281 188.193 208.9 188.646C208.457 189.171 208.291 189.566 208.328 189.587C208.416 189.666 209.334 188.203 211.207 187.431C213.062 186.62 214.752 186.974 214.757 186.856Z" fill="#FF9A6C"/>
<path d="M303.467 155.517C303.467 155.517 327.857 157.857 335.6 179.047C341.745 195.866 345.084 246.253 343.544 247.28L300.482 245.903C299.915 233.616 296.607 224.143 291.969 218.013L303.467 155.517Z" fill="#455A64"/>
<path d="M301.142 245.903C301.162 245.873 301.462 246.042 301.987 246.374C302.514 246.703 303.255 247.212 304.149 247.871C305.939 249.185 308.309 251.151 310.702 253.556C313.099 255.959 315.061 258.327 316.407 260.09C317.078 260.974 317.605 261.701 317.948 262.218C318.294 262.733 318.472 263.028 318.443 263.049C318.379 263.096 317.53 262.02 316.119 260.319C314.705 258.621 312.711 256.308 310.333 253.923C307.958 251.536 305.647 249.543 303.924 248.161C302.203 246.778 301.096 245.97 301.142 245.903Z" fill="#FF9A6C"/>
<path d="M296.013 194.073C296.155 194.097 295.365 199.476 294.248 206.086C293.131 212.698 292.111 218.037 291.969 218.013C291.827 217.989 292.617 212.611 293.734 205.999C294.851 199.389 295.871 194.049 296.013 194.073Z" fill="#263238"/>
<path d="M241.818 345.176C241.817 345.158 242.063 345.121 242.533 345.068C243.055 345.015 243.739 344.946 244.592 344.86C246.439 344.685 249.012 344.442 252.166 344.143C258.56 343.529 267.385 342.607 277.106 341.38C286.83 340.148 295.608 338.843 301.953 337.846C305.082 337.35 307.634 336.945 309.466 336.654C310.313 336.525 310.993 336.422 311.511 336.343C311.98 336.278 312.227 336.252 312.23 336.269C312.233 336.287 311.992 336.347 311.529 336.446C311.015 336.549 310.341 336.685 309.5 336.854C307.737 337.2 305.178 337.665 302.011 338.21C295.678 339.301 286.902 340.665 277.17 341.898C267.441 343.127 258.602 343.991 252.197 344.511C248.994 344.772 246.401 344.959 244.606 345.063C243.75 345.109 243.063 345.145 242.539 345.173C242.068 345.192 241.819 345.194 241.818 345.176Z" fill="#263238"/>
<path d="M238.011 338.739C238.01 338.703 238.642 338.648 239.786 338.578C241.015 338.513 242.65 338.426 244.631 338.32C248.801 338.106 254.412 337.819 260.612 337.501C266.812 337.142 272.421 336.817 276.59 336.575C278.571 336.464 280.205 336.372 281.434 336.303C282.578 336.247 283.213 336.233 283.215 336.269C283.218 336.305 282.589 336.387 281.449 336.505C280.309 336.624 278.658 336.774 276.616 336.942C272.532 337.28 266.885 337.679 260.64 338.021C254.397 338.361 248.741 338.579 244.645 338.688C242.597 338.743 240.939 338.774 239.793 338.78C238.646 338.788 238.012 338.775 238.011 338.739Z" fill="#263238"/>
<path d="M169.426 247.563C169.584 246.95 169.842 246.373 170.205 245.853C170.925 244.82 172.016 244.033 173.251 243.751C175.303 243.283 177.602 244.244 178.712 246.033C178.638 244.669 179.715 243.398 181.033 243.038C182.35 242.678 183.373 243.186 184.424 244.058C185.475 244.93 185.744 245.624 186.171 246.922C187.22 244.566 192.614 244.854 193.27 246.622C193.27 246.622 197.911 241.542 200.285 244.04C201.271 245.078 200.848 246.67 200.195 248.265C199.323 250.394 198.749 251.281 197.609 253.626L193.216 253.866C192.846 255.241 192.067 260.832 191.902 262.246C191.737 263.66 191.454 265.1 190.702 266.309C189.95 267.518 188.643 268.464 187.219 268.445C185.795 268.425 184.393 267.205 184.477 265.783C184.178 266.958 183.678 268.117 182.812 268.965C181.946 269.813 180.664 270.302 179.491 269.996C178.318 269.69 177.388 268.463 177.626 267.275C176.06 268.36 173.745 267.396 172.751 265.771C171.756 264.146 171.732 262.126 171.793 260.221C171.847 258.533 172 256.639 171.335 255.041C171.23 254.789 171.05 254.571 170.989 254.303C170.899 253.906 170.959 253.456 170.931 253.049C170.869 252.164 170.706 251.282 170.402 250.447C170.335 250.264 170.262 250.083 170.181 249.905C169.968 249.432 169.653 249.032 169.412 248.58C169.359 248.481 169.314 248.383 169.301 248.27C169.274 248.038 169.369 247.781 169.426 247.563Z" fill="#FFBF9D"/>
<path d="M164.484 245.123C163.31 245.081 162.031 245.324 161.247 246.199C160.318 247.237 160.104 249.721 160.21 251.11C161.838 251.417 162.707 251.055 164.335 251.362C164.678 251.427 164.965 251.34 165.249 251.542C166 252.075 165.878 253.871 166.18 254.741C166.704 256.25 168.637 256.987 170.135 256.432C171.633 255.877 172.597 254.284 172.673 252.688C172.749 251.093 172.047 249.532 171.019 248.31C169.413 246.401 166.978 245.213 164.484 245.123Z" fill="#FFBF9D"/>
<path d="M192.209 259.914C192.043 259.879 192.713 256.899 193.137 253.192C193.341 251.338 193.388 249.651 193.315 248.435C193.252 247.219 193.109 246.471 193.19 246.452C193.249 246.435 193.522 247.164 193.682 248.402C193.852 249.637 193.862 251.367 193.655 253.248C193.453 255.13 193.101 256.804 192.811 258.003C192.515 259.202 192.277 259.929 192.209 259.914Z" fill="#FF9A6C"/>
<path d="M184.28 266.314C184.207 266.298 184.395 265.215 184.715 263.474C185.032 261.732 185.479 259.328 185.817 256.656C186.155 253.983 186.276 251.547 186.24 249.785C186.214 248.022 186.086 246.933 186.17 246.921C186.228 246.911 186.486 247.988 186.608 249.77C186.739 251.55 186.676 254.024 186.334 256.721C185.993 259.417 185.486 261.823 185.076 263.55C184.662 265.277 184.348 266.33 184.28 266.314Z" fill="#FF9A6C"/>
<path d="M177.573 267.457C177.495 267.436 177.772 266.241 178.122 264.296C178.474 262.352 178.862 259.648 179.028 256.641C179.189 253.633 179.098 250.903 178.96 248.932C178.823 246.96 178.678 245.742 178.758 245.73C178.794 245.725 178.87 246.023 178.978 246.569C179.09 247.114 179.211 247.91 179.327 248.899C179.561 250.875 179.712 253.632 179.549 256.67C179.381 259.707 178.931 262.431 178.484 264.369C178.262 265.339 178.054 266.117 177.884 266.647C177.716 267.178 177.607 267.466 177.573 267.457Z" fill="#FF9A6C"/>
<path d="M168.729 247.875C168.752 247.822 169.331 247.99 170.099 248.567C170.863 249.134 171.783 250.159 172.323 251.536C172.862 252.91 172.904 254.303 172.618 255.243C172.327 256.209 171.72 256.545 171.7 256.484C171.641 256.426 172.094 256.032 172.261 255.153C172.431 254.29 172.339 253.001 171.838 251.727C171.336 250.447 170.529 249.46 169.863 248.85C169.195 248.232 168.689 247.95 168.729 247.875Z" fill="#FF9A6C"/>
</svg>
