<svg width="713" height="527" viewBox="0 0 713 527" fill="none" xmlns="http://www.w3.org/2000/svg">
<path d="M195.464 469.852C291.037 493.831 447.27 496.508 552.719 446.032C650.125 399.413 670.173 228.012 603.325 130.791C555.818 61.7011 464.799 34.139 377.523 43.9307C274.54 55.4825 247.219 126.691 178.884 177.852C136.363 209.683 49.5185 201.852 33.1172 294.73C14.4392 400.583 129.48 453.294 195.464 469.852Z" fill="#E2E7FF"/>
<path d="M529.856 467.291C542.115 254.636 634.62 228.454 649.145 246.351C679.576 283.832 573.916 401.173 529.856 467.291Z" fill="#81C2FF"/>
<path d="M639.068 254.762C587.282 315.125 550.337 388.125 532.365 465.594L639.068 254.762Z" fill="#81C2FF"/>
<path d="M639.068 254.762C587.282 315.125 550.337 388.125 532.365 465.594" stroke="white" stroke-miterlimit="10" stroke-linecap="round"/>
<path d="M611.778 256.586C614.782 265.492 616.416 274.852 616.627 284.243C626.514 282.114 636.601 280.965 646.72 280.817" fill="#81C2FF"/>
<path d="M611.778 256.586C614.782 265.492 616.416 274.852 616.627 284.243C626.514 282.114 636.601 280.965 646.72 280.817" stroke="white" stroke-miterlimit="10" stroke-linecap="round"/>
<path d="M576.172 293.444C581.99 303.552 586.28 314.524 588.873 325.886C600.626 323.367 612.664 322.144 624.68 322.25" fill="#81C2FF"/>
<path d="M576.172 293.444C581.99 303.552 586.28 314.524 588.873 325.886C600.626 323.367 612.664 322.144 624.68 322.25" stroke="white" stroke-miterlimit="10" stroke-linecap="round"/>
<path d="M551.633 346.892C556.482 354.492 560.666 362.513 564.124 370.839C575.497 366.244 587.819 364.02 600.078 364.357" fill="#81C2FF"/>
<path d="M551.633 346.892C556.482 354.492 560.666 362.513 564.124 370.839C575.497 366.244 587.819 364.02 600.078 364.357" stroke="white" stroke-miterlimit="10" stroke-linecap="round"/>
<path d="M574.791 398.201C567.328 397.653 559.781 398.222 552.487 399.866C550.59 393.838 547.891 388.062 544.487 382.75" fill="#81C2FF"/>
<path d="M574.791 398.201C567.328 397.653 559.781 398.222 552.487 399.866C550.59 393.838 547.891 388.062 544.487 382.75" stroke="white" stroke-miterlimit="10" stroke-linecap="round"/>
<path d="M529.856 467.291C597.843 359.045 684.635 323.378 688.577 362.492C694.048 416.657 576.794 452.008 529.856 467.291Z" fill="#81C2FF"/>
<path d="M677.773 366.318C624.248 391.867 574.717 425.774 531.532 466.427L677.773 366.318Z" fill="#81C2FF"/>
<path d="M677.773 366.318C624.248 391.867 574.717 425.774 531.532 466.427" stroke="white" stroke-miterlimit="10" stroke-linecap="round"/>
<path d="M658.537 355.019C658.758 362.565 658.041 370.144 656.386 377.511C663.817 378.228 671.006 381.158 676.814 385.848" fill="#81C2FF"/>
<path d="M658.537 355.019C658.758 362.565 658.041 370.144 656.386 377.511C663.817 378.228 671.006 381.158 676.814 385.848" stroke="white" stroke-miterlimit="10" stroke-linecap="round"/>
<path d="M622.298 371.756C623.7 379.704 624.258 387.798 623.942 395.872C633.998 396.789 643.801 400.257 652.191 405.853" fill="#81C2FF"/>
<path d="M622.298 371.756C623.7 379.704 624.258 387.798 623.942 395.872C633.998 396.789 643.801 400.257 652.191 405.853" stroke="white" stroke-miterlimit="10" stroke-linecap="round"/>
<path d="M587.998 396.705C590.771 402.934 592.067 409.806 591.772 416.615C601.069 417.342 610.186 420.293 618.145 425.141" fill="#81C2FF"/>
<path d="M587.998 396.705C590.771 402.934 592.067 409.806 591.772 416.615C601.069 417.342 610.186 420.293 618.145 425.141" stroke="white" stroke-miterlimit="10" stroke-linecap="round"/>
<path d="M561.331 297.407H410.599V313.217H561.331V297.407Z" fill="#F2CDBF"/>
<path d="M556.882 313.217V467.291H543.527V458.859H428.339V467.291H415.037V313.217H556.882Z" fill="#F2CDBF"/>
<path d="M556.872 313.217H415.037V316.379H556.872V313.217Z" fill="#D4A59B"/>
<path d="M542.273 327.025H429.225V361.28H542.273V327.025Z" fill="#D4A59B"/>
<path d="M543.433 323.863H428.065V358.118H543.433V323.863Z" fill="#FADED2"/>
<path d="M542.273 370.239H429.225V404.494H542.273V370.239Z" fill="#D4A59B"/>
<path d="M543.433 367.077H428.065V401.332H543.433V367.077Z" fill="#FADED2"/>
<path d="M542.273 413.453H429.225V447.708H542.273V413.453Z" fill="#D4A59B"/>
<path d="M543.433 410.291H428.065V444.546H543.433V410.291Z" fill="#FADED2"/>
<path d="M447.576 289.723V265.745H454.164V289.723C454.164 291.326 452.867 292.622 451.265 292.622H450.474C448.872 292.622 447.576 291.326 447.576 289.723Z" fill="white"/>
<path d="M446.385 264.986C446.385 264.575 446.722 264.227 447.144 264.227H454.596C455.007 264.227 455.355 264.565 455.355 264.986C455.355 265.397 455.017 265.745 454.596 265.745H447.144C446.722 265.734 446.385 265.397 446.385 264.986Z" fill="white"/>
<path d="M448.63 289.334V273.65H453.11V289.334C453.11 290.567 452.108 291.568 450.875 291.568C449.631 291.568 448.63 290.567 448.63 289.334Z" fill="#F0D3D8"/>
<path d="M460.752 289.723V265.745H467.34V289.723C467.34 291.326 466.043 292.622 464.441 292.622H463.65C462.048 292.622 460.752 291.326 460.752 289.723Z" fill="white"/>
<path d="M459.561 264.986C459.561 264.575 459.898 264.227 460.319 264.227H467.772C468.183 264.227 468.531 264.565 468.531 264.986C468.531 265.397 468.193 265.745 467.772 265.745H460.319C459.898 265.734 459.561 265.397 459.561 264.986Z" fill="white"/>
<path d="M461.806 289.334V273.65H466.285V289.334C466.285 290.567 465.284 291.568 464.051 291.568C462.807 291.568 461.806 290.567 461.806 289.334Z" fill="#F0D3D8"/>
<path d="M474.718 289.723V265.745H481.306V289.723C481.306 291.326 480.009 292.622 478.407 292.622H477.617C476.014 292.622 474.718 291.326 474.718 289.723Z" fill="white"/>
<path d="M473.527 264.986C473.527 264.575 473.864 264.227 474.286 264.227H481.738C482.149 264.227 482.497 264.565 482.497 264.986C482.497 265.397 482.16 265.745 481.738 265.745H474.286C473.864 265.734 473.527 265.397 473.527 264.986Z" fill="white"/>
<path d="M475.772 289.334V273.65H480.252V289.334C480.252 290.567 479.25 291.568 478.017 291.568C476.773 291.568 475.772 290.567 475.772 289.334Z" fill="#F0D3D8"/>
<path d="M488.948 289.723V265.745H495.536V289.723C495.536 291.326 494.239 292.622 492.637 292.622H491.847C490.244 292.622 488.948 291.326 488.948 289.723Z" fill="white"/>
<path d="M487.757 264.986C487.757 264.575 488.094 264.227 488.516 264.227H495.968C496.379 264.227 496.727 264.565 496.727 264.986C496.727 265.397 496.39 265.745 495.968 265.745H488.516C488.094 265.734 487.757 265.397 487.757 264.986Z" fill="white"/>
<path d="M490.002 289.334V273.65H494.482V289.334C494.482 290.567 493.48 291.568 492.247 291.568C491.003 291.568 490.002 290.567 490.002 289.334Z" fill="#F0D3D8"/>
<path d="M504.232 289.723V265.745H510.82V289.723C510.82 291.326 509.523 292.622 507.921 292.622H507.13C505.528 292.622 504.232 291.326 504.232 289.723Z" fill="white"/>
<path d="M503.041 264.986C503.041 264.575 503.378 264.227 503.8 264.227H511.252C511.663 264.227 512.011 264.565 512.011 264.986C512.011 265.397 511.673 265.745 511.252 265.745H503.8C503.378 265.734 503.041 265.397 503.041 264.986Z" fill="white"/>
<path d="M505.286 289.334V273.65H509.766V289.334C509.766 290.567 508.764 291.568 507.531 291.568C506.287 291.568 505.286 290.567 505.286 289.334Z" fill="#F0D3D8"/>
<path d="M522.225 267.126H441.062V269.234H522.225V267.126Z" fill="#A7C2D9"/>
<path d="M527.463 292.137H436.814V297.407H527.463V292.137Z" fill="#D49BA0"/>
<path d="M442.717 264.227H440.408V294.762H442.717V264.227Z" fill="#D49BA0"/>
<path d="M523.152 264.227H520.844V294.762H523.152V264.227Z" fill="#D49BA0"/>
<path d="M109.368 372.779C128.468 348.821 137.796 317.402 134.835 286.983C131.873 256.565 116.652 227.506 92.419 207.311C92.7668 229.846 91.8392 252.401 89.6257 274.83C87.5281 296.163 84.3027 317.981 89.4044 338.808C92.4401 351.193 98.406 362.85 109.368 372.779Z" fill="#439FF4"/>
<path d="M107.576 400.13C107.576 324.737 127.583 300.401 98.269 220.834" stroke="white" stroke-miterlimit="10" stroke-linecap="round"/>
<path d="M112.225 233.914C110.18 238.278 108.135 242.652 106.09 247.015C102.454 245.224 98.4693 244.138 94.4322 243.832" stroke="white" stroke-miterlimit="10" stroke-linecap="round"/>
<path d="M91.8076 279.268C99.4918 279.573 107.092 281.65 113.869 285.265C118.37 279.71 123.725 274.841 129.68 270.867" stroke="white" stroke-miterlimit="10" stroke-linecap="round"/>
<path d="M90.9327 315.842C98.6485 315.209 106.575 317.233 113.026 321.491C119.298 314.851 126.518 309.096 134.402 304.448" stroke="white" stroke-miterlimit="10" stroke-linecap="round"/>
<path d="M94.4217 345.975C100.208 346.597 105.742 349.359 109.695 353.606C113.88 347.904 118.992 342.866 124.779 338.766" stroke="white" stroke-miterlimit="10" stroke-linecap="round"/>
<path d="M123.124 370.481C123.124 370.481 106.891 334.972 127.688 296.111C139.177 274.641 164.001 248.512 194.958 226.663C194.958 226.663 180.223 306.872 161.913 340.41C147.81 366.254 123.124 370.481 123.124 370.481Z" fill="#81C2FF"/>
<path d="M183.754 242.188C151.773 293.56 129.006 349.612 110.949 407.276" stroke="white" stroke-miterlimit="10" stroke-linecap="round"/>
<path d="M163.41 254.91C165.329 259.379 166.868 264.016 167.995 268.738C173.424 267.705 178.916 267.02 184.428 266.672" stroke="white" stroke-miterlimit="10" stroke-linecap="round"/>
<path d="M138.007 287.141C142.498 293.507 146.134 300.464 148.769 307.778C157.233 303.699 166.341 300.938 175.659 299.62" stroke="white" stroke-miterlimit="10" stroke-linecap="round"/>
<path d="M123.071 314.398C128.563 321.449 132.737 329.512 135.288 338.049C144.817 334.034 154.777 331.03 164.949 329.101" stroke="white" stroke-miterlimit="10" stroke-linecap="round"/>
<path d="M119.024 347.198C122.186 350.729 125.158 354.439 127.909 358.297C134.919 355.419 142.287 353.364 149.781 352.205" stroke="white" stroke-miterlimit="10" stroke-linecap="round"/>
<path d="M92.5138 377.669C92.5138 377.669 106.586 357.717 96.182 323.114C81.931 275.705 22.5766 242.083 22.5766 242.083C22.5766 242.083 38.493 306.946 50.9098 339.261C63.4848 371.957 92.5138 377.669 92.5138 377.669Z" fill="#81C2FF"/>
<path d="M96.182 395.06C96.182 395.06 88.0867 329.818 30.4399 251.168" stroke="white" stroke-miterlimit="10" stroke-linecap="round"/>
<path d="M51.3315 264.923C49.645 268.844 48.5171 272.996 47.9901 277.223C43.9636 276.085 39.7684 275.505 35.5732 275.516" stroke="white" stroke-miterlimit="10" stroke-linecap="round"/>
<path d="M43.7211 308.854C51.5845 307.641 59.7324 308.211 67.3427 310.508C68.8184 303.457 72.1387 296.785 76.882 291.336" stroke="white" stroke-miterlimit="10" stroke-linecap="round"/>
<path d="M94.0317 322.461C88.6665 328.353 84.4608 335.288 81.7307 342.75C74.2785 339.525 65.6879 338.977 57.8772 341.232" stroke="white" stroke-miterlimit="10" stroke-linecap="round"/>
<path d="M74.6579 367.192C79.7912 366.254 85.0827 366.191 90.237 366.982C92.0289 362.861 94.6009 359.077 97.7841 355.894" stroke="white" stroke-miterlimit="10" stroke-linecap="round"/>
<path d="M146.63 383.161L144.405 395.703L141.971 409.5L140.685 416.73L138.25 430.538L131.757 467.291H84.3448L77.7253 430.538L75.2377 416.73L73.9412 409.5L71.4431 395.703L69.1874 383.161H146.63Z" fill="#81C2FF"/>
<path d="M144.405 395.703L141.971 409.5H73.9412L71.4431 395.703H144.405Z" fill="#FADED2"/>
<path d="M140.685 416.73L138.25 430.538H77.7253L75.2377 416.73H140.685Z" fill="#FADED2"/>
<path d="M232.926 448.055H155.273V455.275H232.926V448.055Z" fill="#326894"/>
<path d="M168.565 381.211C168.565 381.39 168.544 381.58 168.522 381.759L167.321 391.709L156.58 480.36C156.295 482.742 154.187 484.429 151.868 484.123C149.728 483.849 148.158 481.984 148.158 479.833C148.158 479.654 148.179 479.465 148.2 479.285L158.804 391.709L160.132 380.694C160.427 378.323 162.525 376.626 164.844 376.931C167.005 377.195 168.565 379.06 168.565 381.211Z" fill="#4D8AB3"/>
<path d="M168.565 381.211C168.565 381.39 168.544 381.58 168.522 381.759L167.321 391.709H158.815L160.143 380.694C160.438 378.323 162.535 376.626 164.854 376.931C167.005 377.195 168.565 379.06 168.565 381.211Z" fill="#326894"/>
<path d="M199.386 380.462V479.812C199.386 482.216 197.499 484.144 195.17 484.144C194.01 484.144 192.956 483.659 192.187 482.869C191.428 482.089 190.953 481.014 190.953 479.802V380.452C190.953 378.049 192.851 376.12 195.17 376.12C196.34 376.12 197.394 376.605 198.153 377.395C198.911 378.186 199.386 379.271 199.386 380.462Z" fill="#4D8AB3"/>
<path d="M198.142 377.406C198.911 378.186 199.375 379.272 199.375 380.473V391.709H190.932V380.473C190.932 378.07 192.829 376.141 195.148 376.141C196.329 376.131 197.383 376.616 198.142 377.406Z" fill="#326894"/>
<path d="M241.822 479.812C241.822 481.984 240.262 483.839 238.122 484.113C235.803 484.408 233.695 482.721 233.411 480.35L222.67 391.698L221.468 381.748C221.447 381.569 221.426 381.379 221.426 381.2C221.426 379.05 222.997 377.195 225.136 376.91C227.455 376.615 229.553 378.302 229.848 380.673L231.176 391.687L241.78 479.264C241.812 479.465 241.822 479.633 241.822 479.812Z" fill="#4D8AB3"/>
<path d="M231.187 391.698H222.68L221.479 381.748C221.458 381.569 221.437 381.379 221.437 381.2C221.437 379.05 223.007 377.195 225.147 376.91C227.466 376.615 229.563 378.302 229.859 380.673L231.187 391.698Z" fill="#326894"/>
<path d="M249.506 369.258V372.072C249.506 376.995 245.522 380.979 240.599 380.979H160.87C155.947 380.979 151.963 376.995 151.963 372.072V369.258C151.963 364.336 155.947 360.352 160.87 360.352H240.599C245.522 360.341 249.506 364.336 249.506 369.258Z" fill="#994403"/>
<path d="M249.506 369.258V372.072C249.506 376.995 245.522 380.979 240.599 380.979H168.227C163.305 380.979 159.32 376.995 159.32 372.072V369.258C159.32 364.336 163.305 360.352 168.227 360.352H240.599C245.522 360.341 249.506 364.336 249.506 369.258Z" fill="#852E03"/>
<path d="M166.246 191.744C165.244 193.788 164.232 195.844 163.336 197.815C162.725 201.335 163.084 204.94 163.336 208.513C163.589 212.086 163.737 215.722 162.736 219.169C161.734 222.615 159.405 225.862 155.969 227.179C153.734 228.033 151.067 228.096 149.338 229.719C147.378 231.564 147.515 234.663 148.232 237.213C148.833 239.353 149.781 241.482 151.478 242.968C153.175 244.454 155.905 245.424 157.76 244.349C159.595 243.274 162.029 244.054 163.358 245.677C164.686 247.3 165.308 249.397 166.615 251.042C168.47 253.382 171.579 254.594 174.626 254.667C177.672 254.741 180.918 254.309 182.953 253.044C187.306 250.314 192.734 248.502 197.193 251.063C199.544 252.412 201.399 254.562 203.939 255.532C206.1 256.354 208.619 256.196 210.654 255.121C212.688 254.046 213.468 251.748 214.743 249.988C217.083 246.762 222.754 249.366 226.675 248.301C230.87 247.152 233.695 242.546 232.715 238.425C231.735 234.304 227.171 232.839 223.102 232.228C220.309 231.806 219.16 228.254 218.517 225.598C217.874 222.931 217.99 220.159 218.106 217.419C218.348 211.843 220.888 198.837 219.276 197.087C218.433 196.17 215.27 193.852 214.121 193.335C208.83 190.921 203.539 188.497 198.247 186.084C193.43 183.881 188.381 181.636 183.058 181.783C177.746 181.899 170.061 183.976 166.246 191.744Z" fill="#732D02"/>
<path d="M184.586 241.946C184.586 241.946 161.102 245.656 158.614 253.972C156.127 262.288 170.388 320.479 170.388 320.479L223.155 317.254C223.155 317.254 226.992 250.177 218.601 245.972C210.211 241.766 184.586 241.946 184.586 241.946Z" fill="#EBF5FF"/>
<path d="M205.067 244.254C205.067 244.254 201.641 255.922 195.422 258.472C189.214 261.034 175.616 245.466 175.616 245.466C178.357 243.727 179.39 239.543 179.727 235.727C180.064 231.848 179.685 228.37 179.685 228.37L198.553 231.996C198.068 237.835 199.786 240.902 201.589 242.515C203.296 244.054 205.067 244.254 205.067 244.254Z" fill="#FBBD9A"/>
<path d="M201.589 242.525C192.629 243.706 184.513 239.216 179.727 235.738C180.064 231.859 179.685 228.381 179.685 228.381L198.553 232.006C198.057 237.835 199.786 240.913 201.589 242.525Z" fill="#F0997F"/>
<path d="M256.168 463.033C254.134 466.416 218.823 444.651 218.823 440.899C218.823 438.453 223.429 434.912 226.633 432.762C228.351 431.602 229.658 430.833 229.658 430.833L237.901 427.049L241.611 429.041C247.019 438.359 252.184 448.066 254.766 454.822C256.305 458.806 256.927 461.778 256.168 463.033Z" fill="#2590F2"/>
<path d="M254.777 454.811C244.658 455.233 231.282 438.864 226.644 432.751C228.362 431.592 229.669 430.822 229.669 430.822L237.912 427.039L241.622 429.031C247.04 438.348 252.194 448.055 254.777 454.811Z" fill="#F0997F"/>
<path d="M219.834 322.229C219.834 322.229 284.111 330.366 286.293 346.819C288.475 363.261 245.975 435.871 245.975 435.871L230.691 431.887L250.634 366.982L199.459 345.269L209.652 322.229H219.834Z" fill="#002A42"/>
<path d="M240.547 464.909C238.512 468.292 203.201 446.527 203.201 442.775C203.201 440.33 207.808 436.788 211.012 434.638C212.73 433.479 214.037 432.709 214.037 432.709L222.28 428.925L225.99 430.917C231.397 440.235 236.562 449.942 239.145 456.698C240.684 460.682 241.306 463.655 240.547 464.909Z" fill="#2590F2"/>
<path d="M239.155 456.688C229.036 457.109 215.66 440.741 211.022 434.627C212.741 433.468 214.048 432.699 214.048 432.699L222.29 428.915L226.001 430.907C231.419 440.224 236.573 449.931 239.155 456.688Z" fill="#FBBD9A"/>
<path d="M165.624 316.716C165.624 316.716 143.351 360.752 182.542 365.506C211.012 368.963 229.88 368.268 230.47 369.849C231.44 372.389 211.95 433.879 211.95 433.879L231.145 439.95C231.145 439.95 270.872 354.629 268.711 347.198C266.93 341.085 212.108 331.757 212.108 331.757C216.725 329.565 220.119 321.586 219.624 311.299L165.624 316.716Z" fill="#06384F"/>
<path d="M171.801 312.901C171.801 312.901 159.025 341.011 169.25 352.415C181.298 365.854 233.991 361.522 237.659 366.275C240.6 370.08 217.305 432.235 217.305 432.235" stroke="#27788F" stroke-miterlimit="10" stroke-linecap="round"/>
<path d="M213.499 431.297L232.072 436.957" stroke="#27788F" stroke-miterlimit="10" stroke-linecap="round"/>
<path d="M214.088 208.118C218.617 207.604 222.592 209.87 222.967 213.179C223.342 216.487 219.975 219.585 215.445 220.098C210.916 220.612 206.941 218.346 206.566 215.037C206.192 211.729 209.559 208.631 214.088 208.118Z" fill="#F0997F"/>
<path d="M169.25 207.849C169.25 192.218 179.179 179.549 192.513 179.549C205.847 179.549 216.662 192.218 216.662 207.849C216.662 223.48 209.842 236.929 197.288 237.413C184.639 237.898 169.25 223.469 169.25 207.849Z" fill="#FBBD9A"/>
<path d="M170.546 211.474C177.25 208.365 182.773 202.8 185.251 196.002C188.718 199.912 193.778 202.125 198.911 203.085C204.044 204.044 209.315 203.865 214.248 203.728C215.85 205.087 216.967 207.006 217.347 209.071C217.905 204.434 217.41 199.659 215.903 195.232C202.621 191.185 189.425 186.885 176.301 182.342C174.341 191.691 172.38 201.04 170.546 211.474Z" fill="#F0997F"/>
<path d="M183.058 188.845C185.915 194.231 191.438 197.815 197.246 199.67C203.054 201.514 209.23 201.82 215.407 201.999C216.377 205.393 216.577 209.366 216.577 212.845C218.707 207.912 219.803 203.707 220.003 199.617C220.056 198.437 220.056 197.235 220.024 195.97C219.718 187.37 216.156 182.479 211.381 178.811C206.595 175.143 200.724 173.583 194.695 173.583C188.739 173.583 184.955 174.932 182.689 177.283C181.888 178.115 181.277 179.064 180.834 180.129C179.864 182.405 180.95 184.882 183.058 188.845Z" fill="#8C4206"/>
<path d="M163.199 213.361C162.999 205.72 162.514 192.64 165.592 186.389C167.605 182.3 171.411 178.895 175.933 178.284C180.455 177.683 185.451 180.476 186.494 184.914C184.492 195.18 179.337 204.602 172.033 211.991C169.503 213.214 165.771 214.025 163.199 213.361Z" fill="#8C4206"/>
<path d="M182.679 177.293C191.417 174.932 201.199 176.998 208.419 182.479C214.016 186.727 218.032 192.871 220.003 199.628C220.056 198.447 220.056 197.246 220.024 195.981C219.718 187.38 216.156 182.49 211.381 178.822C206.595 175.154 200.724 173.594 194.695 173.594C188.729 173.594 184.945 174.943 182.679 177.293Z" fill="#A66317"/>
<path d="M160.382 213.601C161.207 210.375 165.457 208.677 169.873 209.807C174.288 210.937 177.2 214.469 176.373 217.694C175.548 220.92 171.298 222.618 166.882 221.489C162.466 220.359 159.556 216.827 160.382 213.601Z" fill="#FBBD9A"/>
<path d="M193.409 217.651C194.102 217.651 194.663 216.754 194.663 215.648C194.663 214.542 194.102 213.646 193.409 213.646C192.716 213.646 192.155 214.542 192.155 215.648C192.155 216.754 192.716 217.651 193.409 217.651Z" fill="#2F344D"/>
<path d="M210.854 217.661C211.546 217.661 212.108 216.765 212.108 215.659C212.108 214.553 211.546 213.656 210.854 213.656C210.161 213.656 209.599 214.553 209.599 215.659C209.599 216.765 210.161 217.661 210.854 217.661Z" fill="#2F344D"/>
<path d="M207.186 206.32C209.336 205.593 212.393 205.751 214.511 207.206" stroke="#8C4206" stroke-width="2" stroke-miterlimit="10" stroke-linecap="round"/>
<path d="M194.484 206.099C192.134 205.056 187.822 205.277 185.788 207.596" stroke="#8C4206" stroke-width="2" stroke-miterlimit="10" stroke-linecap="round"/>
<path d="M202.337 214.436C202.906 216.565 202.484 219.211 201.799 220.876" stroke="#D45E4E" stroke-width="2" stroke-miterlimit="10" stroke-linecap="round"/>
<path d="M200.83 227.074C198.047 227.622 193.008 226.03 191.638 223.711" stroke="#D45E4E" stroke-width="2" stroke-miterlimit="10" stroke-linecap="round"/>
<path d="M210.854 251.358L220.267 245.677C220.267 245.677 228.204 246.351 233.579 256.227C238.924 266.051 248.99 297.808 252.163 299.209C255.335 300.611 294.009 301.107 294.009 301.107L294.536 312.437C294.536 312.437 247.166 319.952 241.517 316.843C235.867 313.723 217.579 277.107 217.579 277.107L210.854 251.358Z" fill="#FBBD9A"/>
<path d="M210.274 250.083L212.087 243.737C212.087 243.737 222.48 244.18 227.793 248.343C233.105 252.507 237.458 263.827 237.458 263.827L223.945 285.644L210.274 250.083Z" fill="#51ABFF"/>
<path d="M226.306 293.834C226.306 293.834 240.821 281.302 243.055 278.172C244.162 276.622 252.015 294.867 250.687 297.101C248.568 300.664 235.34 309.222 234.602 308.727C233.864 308.232 226.306 293.834 226.306 293.834Z" fill="#163649"/>
<path d="M222.501 282.419C226.876 275.473 231.25 268.538 235.614 261.592C235.856 261.213 236.109 260.812 236.489 260.559C237.574 259.832 239.155 260.728 239.598 261.951C240.051 263.184 239.725 264.543 239.387 265.808C240.789 265.587 242.054 266.957 242.223 268.359C242.402 269.771 241.791 271.152 241.127 272.406C237.079 280.069 230.291 286.235 222.28 289.534C221.911 287.152 221.184 284.506 222.501 282.419Z" fill="#2D84D6"/>
<path d="M288.032 302.877C293.45 299.072 303.928 291.526 304.718 291.167C305.646 290.746 312.012 290.714 315.48 291.758C318.948 292.801 322.174 295.194 323.428 298.609C323.776 299.568 323.871 300.843 323.027 301.402C322.479 301.771 321.72 301.644 321.151 301.307C320.582 300.97 320.16 300.432 319.707 299.947C317.388 297.428 315.291 296.437 311.485 296.227C315.997 296.912 318.864 299.694 320.213 304.079C320.477 304.954 320.582 306.06 319.876 306.63C319.317 307.072 318.474 306.956 317.873 306.566C317.272 306.176 316.861 305.565 316.408 305.006C314.753 302.898 312.539 301.244 310.062 300.253C313.509 301.718 316.092 305.08 316.64 308.811C316.724 309.359 316.756 309.939 316.545 310.445C316.334 310.951 315.797 311.362 315.259 311.267C314.837 311.193 314.532 310.856 314.247 310.54C312.371 308.421 310.895 306.166 308.397 304.648C310.674 307.684 312.592 312.616 312.118 313.902C311.97 314.292 311.001 314.967 309.915 313.892C308.682 312.658 307.817 310.55 305.899 308.2C302.621 311.857 297.319 313.554 292.544 312.479C290.994 309.233 289.476 305.976 288.032 302.877Z" fill="#FBBD9A"/>
<path d="M297.867 298.05C301.714 296.669 305.635 295.489 309.62 294.54C310.147 294.414 310.695 294.287 311.232 294.35C311.77 294.414 312.318 294.698 312.55 295.183C312.792 295.689 312.634 296.311 312.308 296.764C311.981 297.217 311.506 297.544 311.022 297.839C309.346 298.883 307.564 299.768 305.688 300.664C305.319 303.489 303.243 306.008 300.544 306.904" fill="#FBBD9A"/>
<path d="M297.867 298.05C301.714 296.669 305.635 295.489 309.62 294.54C310.147 294.414 310.695 294.287 311.232 294.35C311.77 294.414 312.318 294.698 312.55 295.183C312.792 295.689 312.634 296.311 312.308 296.764C311.981 297.217 311.506 297.544 311.022 297.839C309.346 298.883 307.564 299.768 305.688 300.664C305.319 303.489 303.243 306.008 300.544 306.904" stroke="#D45E4E" stroke-miterlimit="10" stroke-linecap="round"/>
<path d="M201.905 242.715C204.16 244.676 205.626 255.721 206.785 262.741C208.524 273.26 217.378 318.993 217.905 322.229C218.844 327.942 236.931 327.552 237.659 324.569C237.796 324.021 232.378 321.502 231.513 317.855C230.744 314.587 224.736 250.915 221.837 247.563C218.011 243.137 201.177 242.083 201.905 242.715Z" fill="#51ABFF"/>
<path d="M177.081 242.715C178.968 243.39 184.892 255.974 187.706 267.495C193.588 291.557 190.089 327.288 187.706 332.01C185.324 336.732 162.24 338.808 158.319 337.554C156.042 336.827 153.565 264.796 155.136 255.753C156.19 249.724 176.512 242.515 177.081 242.715Z" fill="#51ABFF"/>
<path d="M211.665 323.177C216.535 321.396 230.628 317.686 232.578 317.886C234.539 318.087 236.573 318.793 237.806 320.437C238.597 321.491 238.987 322.83 239.356 324.126C239.956 326.234 240.557 328.342 241.158 330.45C241.369 331.188 241.58 331.957 241.474 332.716C241.369 333.475 240.842 334.234 240.125 334.287C239.113 334.371 238.481 333.159 238.112 332.136C237.163 329.512 236.215 326.887 235.276 324.316C235.898 327.552 236.51 330.798 237.132 334.034C237.279 334.803 237.427 335.594 237.248 336.352C237.068 337.111 236.478 337.817 235.751 337.807C234.676 337.786 234.159 336.405 233.917 335.267C233.379 332.737 232.831 330.197 231.998 327.689C233.116 331.251 233.284 335.151 232.462 338.808C232.336 339.367 232.167 339.957 231.788 340.358C231.408 340.758 230.733 340.906 230.333 340.526C230.027 340.242 229.964 339.757 229.922 339.325C229.595 336.057 229.268 332.779 228.942 329.512C229.258 332.959 229.563 336.51 228.594 339.81C228.425 340.4 228.193 340.99 227.761 341.391C227.329 341.791 226.633 341.918 226.19 341.538C225.758 341.169 225.706 340.505 225.684 339.915C225.611 337.86 225.537 335.804 225.526 333.401C223.713 335.52 221.205 336.932 218.559 337.343C215.913 337.754 213.141 337.143 210.538 336.31C210.769 332.484 210.991 328.648 211.665 323.177Z" fill="#FBBD9A"/>
<path d="M175.616 264.227C174.141 257.408 168.027 246.351 163.041 248.638C160.185 249.956 151.953 252.707 151.953 270.741C151.953 295.12 155.157 327.151 163.041 332.516C167.047 335.246 210.854 337.923 210.854 337.923L214.058 322.229C214.058 322.229 181.772 316.242 180.286 311.815C178.188 305.565 179.537 282.366 175.616 264.227Z" fill="#51ABFF"/>
<path d="M171.801 260.485C177.219 278.804 178.357 309.971 179.158 311.847C179.885 313.554 184.007 314.271 187.243 315.378" stroke="#22527E" stroke-miterlimit="10" stroke-linecap="round"/>
<path d="M177.988 335.309C171.98 334.708 164.517 333.538 162.852 332.294C160.891 330.829 158.498 323.662 156.812 318.772" stroke="#22527E" stroke-miterlimit="10" stroke-linecap="round"/>
<path d="M177.113 290.788C179.274 288.079 180.159 283.589 180.339 278.119" stroke="#22527E" stroke-miterlimit="10" stroke-linecap="round"/>
<path d="M414.731 446.179H337.078V453.209H414.731V446.179Z" fill="#326894"/>
<path d="M350.38 381.074C350.38 381.253 350.359 381.432 350.338 381.611L349.137 391.297L338.396 477.631C338.111 479.949 336.003 481.594 333.684 481.299C331.544 481.024 329.974 479.212 329.974 477.125C329.974 476.945 329.995 476.766 330.016 476.587L340.62 391.287L341.948 380.557C342.243 378.249 344.341 376.594 346.66 376.889C348.81 377.174 350.38 378.987 350.38 381.074Z" fill="#4D8AB3"/>
<path d="M350.38 381.074C350.38 381.253 350.359 381.432 350.338 381.611L349.137 391.297H340.63L341.958 380.568C342.254 378.259 344.351 376.605 346.67 376.9C348.81 377.174 350.38 378.987 350.38 381.074Z" fill="#326894"/>
<path d="M381.191 380.346V477.104C381.191 479.443 379.304 481.32 376.975 481.32C375.815 481.32 374.761 480.856 373.992 480.086C373.233 479.328 372.758 478.274 372.758 477.104V380.346C372.758 378.006 374.656 376.13 376.975 376.13C378.145 376.13 379.199 376.594 379.957 377.364C380.727 378.133 381.191 379.187 381.191 380.346Z" fill="#4D8AB3"/>
<path d="M379.957 377.364C380.727 378.122 381.191 379.187 381.191 380.346V391.297H372.748V380.346C372.748 378.006 374.645 376.13 376.964 376.13C378.144 376.13 379.199 376.605 379.957 377.364Z" fill="#326894"/>
<path d="M423.638 477.114C423.638 479.222 422.078 481.035 419.938 481.309C417.619 481.604 415.511 479.96 415.227 477.641L404.486 391.308L403.284 381.622C403.263 381.443 403.242 381.263 403.242 381.084C403.242 378.997 404.812 377.184 406.952 376.91C409.271 376.615 411.369 378.27 411.664 380.578L412.992 391.308L423.596 476.608C423.627 476.777 423.638 476.946 423.638 477.114Z" fill="#4D8AB3"/>
<path d="M413.002 391.297H404.496L403.295 381.611C403.273 381.432 403.252 381.253 403.252 381.074C403.252 378.987 404.823 377.174 406.963 376.9C409.282 376.605 411.379 378.259 411.674 380.568L413.002 391.297Z" fill="#326894"/>
<path d="M431.322 369.258V372.072C431.322 376.995 427.338 380.979 422.415 380.979H342.686C337.763 380.979 333.779 376.995 333.779 372.072V369.258C333.779 364.336 337.763 360.352 342.686 360.352H422.415C427.338 360.341 431.322 364.336 431.322 369.258Z" fill="#994403"/>
<path d="M431.322 369.258V372.072C431.322 376.995 427.338 380.979 422.415 380.979H350.054C345.131 380.979 341.147 376.995 341.147 372.072V369.258C341.147 364.336 345.131 360.352 350.054 360.352H422.415C427.338 360.341 431.322 364.336 431.322 369.258Z" fill="#852E03"/>
<path d="M326.896 241.946C328.498 239.321 326.938 235.906 327.444 232.871C327.591 232.028 327.929 231.174 328.603 230.636C329.278 230.099 330.343 230.025 330.954 230.626C331.702 231.353 331.449 232.576 331.439 233.619C331.418 235.495 332.314 237.234 332.704 239.068C333.652 243.516 331.291 247.173 329.036 251.01C326.2 252.97 322.384 254.351 320.002 254.583C318.505 254.731 310.842 250.504 307.849 241.419C306.342 236.865 306.521 234.979 307.027 234.357C307.533 233.735 308.523 233.44 309.166 233.925C309.556 234.209 309.736 234.694 309.894 235.147C310.853 237.877 311.802 240.607 312.74 243.442C309.04 239.985 306.974 234.852 307.269 229.793C307.322 228.823 307.617 227.653 308.545 227.369C309.135 227.179 309.799 227.453 310.242 227.896C310.684 228.339 310.958 228.908 311.222 229.477C312.55 232.354 313.889 235.221 315.754 238.636C312.371 235.432 310.927 230.331 312.128 225.83C312.329 225.071 312.782 224.186 313.572 224.175C314.374 224.165 314.848 225.05 315.132 225.809C316.482 229.424 317.831 233.05 319.18 236.665C317.251 233.661 316.429 229.962 316.903 226.42C317.072 225.134 317.725 223.585 319.032 223.532C319.77 223.501 320.455 224.007 320.845 224.639C321.235 225.271 321.394 226.009 321.573 226.736C322.585 230.868 324.419 234.789 326.896 241.946Z" fill="#FDBD9B"/>
<path d="M307.838 234.02C309.04 233.693 309.883 234.114 310.347 235.854C311.001 238.309 312.74 244.001 314.532 245.266" stroke="#B0514A" stroke-width="0.5" stroke-miterlimit="10" stroke-linecap="round"/>
<path d="M329.415 248.765L333.832 259.063L322.153 266.135L316.956 252.391L329.415 248.765Z" fill="#FDBD9B"/>
<path d="M328.93 236.644C328.087 231.933 324.535 228.486 320.477 228.054L320.413 227.727C320.413 227.727 318.295 228.107 317.588 228.265C312.972 229.298 310.115 234.473 311.064 239.827C312.023 245.181 316.492 249.039 321.183 248.417C321.9 248.322 324.018 247.943 324.018 247.943L323.955 247.616C327.623 245.824 329.773 241.366 328.93 236.644Z" fill="#316382"/>
<path d="M320.239 227.759C325.168 226.88 329.972 230.696 330.969 236.285C331.966 241.873 328.777 247.114 323.849 247.993C318.92 248.873 314.116 245.056 313.119 239.468C312.123 233.88 315.311 228.638 320.239 227.759Z" fill="#407C91"/>
<path d="M328.899 236.655C328.129 232.365 324.429 229.424 320.635 230.099C320.571 230.109 320.498 230.12 320.434 230.141C316.756 230.91 314.395 234.884 315.154 239.1C315.912 243.326 319.486 246.235 323.217 245.687C323.28 245.687 323.354 245.666 323.417 245.656C327.201 244.992 329.668 240.955 328.899 236.655Z" fill="#EBF5FF"/>
<path d="M365.243 246.014L358.054 240.544C358.054 240.544 353.363 243.2 350.865 248.754C348.367 254.309 345.057 272.849 345.057 272.849L331.629 250.546L314.521 262.688C314.521 262.688 333.494 310.709 344.92 311.288C356.346 311.868 364.389 301.286 364.389 301.286L365.243 246.014Z" fill="white"/>
<path d="M308.576 453.526L310.758 467.28L319.76 470.938L330.1 465.994L328.224 452.44L308.576 453.526Z" fill="#FBBD9A"/>
<path d="M335.919 484.155L289.255 483.48C289.255 483.48 288.939 482.511 288.812 481.109C288.623 478.906 288.928 475.67 291.701 473.499C295.622 470.453 301.851 470.031 305.899 468.461C308.323 467.523 309.788 465.13 309.788 465.13L316.429 465.51C316.429 465.51 316.977 469.209 319.444 468.988C321.91 468.766 330.058 464.772 330.058 464.772C334.274 471.981 335.508 477.799 335.845 481.109C336.035 483.059 335.919 484.155 335.919 484.155Z" fill="#502202"/>
<path d="M335.919 484.155L289.255 483.48C289.255 483.48 288.939 482.511 288.812 481.109H335.834C336.035 483.059 335.919 484.155 335.919 484.155Z" fill="#855321"/>
<path d="M364.378 453.526L366.56 467.28L375.562 470.938L385.902 465.994L384.026 452.44L364.378 453.526Z" fill="#FBBD9A"/>
<path d="M391.721 484.155L345.057 483.48C345.057 483.48 344.741 482.511 344.615 481.109C344.425 478.906 344.731 475.67 347.503 473.499C351.424 470.453 357.653 470.031 361.701 468.461C364.125 467.523 365.591 465.13 365.591 465.13L372.231 465.51C372.231 465.51 372.779 469.209 375.246 468.988C377.712 468.767 385.86 464.772 385.86 464.772C390.077 471.981 391.31 477.799 391.647 481.109C391.837 483.059 391.721 484.155 391.721 484.155Z" fill="#502202"/>
<path d="M391.721 484.155L345.057 483.48C345.057 483.48 344.741 482.511 344.615 481.109H391.637C391.837 483.059 391.721 484.155 391.721 484.155Z" fill="#855321"/>
<path d="M361.638 317.56L353.996 329.944C353.996 329.944 310.242 336.605 303.158 347.325C296.623 357.211 305.477 457.425 305.477 457.425H335.529C335.529 457.425 333.231 383.403 335.529 376.552C337.827 369.701 406.731 370.091 410.683 360.795C414.636 351.498 415.954 318.877 415.954 318.877" fill="#112C45"/>
<path d="M417.176 331.852C417.176 331.852 418.874 358.676 410.062 365.095C402.409 370.671 382.951 372.125 382.951 372.125L386.703 455.56L357.97 457.436C357.97 457.436 343.698 360.057 344.372 350.718C345.047 341.38 372.684 334.624 370.798 333.296C370.798 333.296 349.495 326.065 357.39 318.118C357.569 317.939 357.769 317.749 357.97 317.57C359.804 315.947 382.245 317.623 382.245 317.623L402.936 315.726L411.126 325.011L417.176 331.852Z" fill="#163A4A"/>
<path d="M416.112 340.347C415.933 341.665 415.732 343.077 415.522 344.51C411.98 340.01 406.256 333.422 401.207 330.65C390.741 324.895 357.285 320.964 357.285 320.964L357.411 318.108C357.59 317.929 357.79 317.739 357.991 317.56C359.825 315.936 382.266 317.612 382.266 317.612L402.957 315.715L411.147 325.001L416.112 340.347Z" fill="#112C45"/>
<path d="M402.251 232.565C402.251 232.565 389.929 248.48 382.255 247.669C374.582 246.857 368.584 238.362 368.584 238.362C368.584 238.362 371.662 237.224 372.99 232.196C373.77 229.298 373.949 225.103 372.621 219.084L395.431 215.701C395.431 215.701 395.273 219.506 396.285 223.606C397.149 227.105 398.857 230.836 402.251 232.565Z" fill="#FDBD9B"/>
<path d="M372.99 232.207C373.77 229.308 373.949 225.113 372.621 219.095L395.431 215.712C395.431 215.712 395.273 219.517 396.285 223.617C390.129 228.792 381.655 231.912 372.99 232.207Z" fill="#F0997F"/>
<path d="M351.666 205.594C352.016 202.511 355.722 200.4 359.944 200.879C364.166 201.357 367.307 204.244 366.957 207.327C366.608 210.41 362.901 212.521 358.679 212.043C354.456 211.563 351.316 208.676 351.666 205.594Z" fill="#F0997F"/>
<path d="M360.331 206.415V206.331C360.331 205.319 359.509 204.497 358.497 204.497H357.474C356.462 204.497 355.64 205.319 355.64 206.331V206.415C355.64 207.427 356.462 208.249 357.474 208.249H358.497C359.509 208.249 360.331 207.427 360.331 206.415Z" fill="#4B8394"/>
<path d="M357.179 206.373H355.64V210.589H357.179V206.373Z" fill="#4B8394"/>
<path d="M403.157 197.614C403.157 183.048 393.081 171.233 380.643 171.233C368.205 171.233 358.128 179.011 358.128 197.614C358.128 212.181 363.778 224.818 377.164 225.703C389.571 226.515 403.157 212.191 403.157 197.614Z" fill="#FDBD9B"/>
<path d="M400.501 204.508C396.38 200.544 393.323 195.485 391.826 189.846C389.729 190.521 387.315 190.099 385.786 188.929C381.212 190.784 375.794 190.437 371.641 188.118C368.394 189.636 364.442 189.562 361.153 187.791C359.572 189.941 358.391 192.376 357.664 194.948C357.98 189.931 358.307 184.914 358.634 179.886C370.513 178.21 382.456 177.04 394.43 176.387C395.104 176.345 395.821 176.324 396.432 176.629C397.328 177.093 397.718 178.147 398.014 179.117C400.543 187.443 401.829 196.149 400.501 204.508Z" fill="#F0997F"/>
<path d="M406.225 178.274C405.729 185.757 405.245 195.412 404.749 202.8C404.053 205.34 401.872 205.245 398.91 206.194C396.159 200.06 394.472 193.462 393.45 186.21C390.572 186.969 387.452 186.758 384.511 185.62C380.105 187.317 375.109 187.401 370.587 185.588C367.172 186.716 363.451 186.937 360.236 185.778C359.024 189.456 358.434 195.043 358.117 198.964C357.696 195.369 356.304 184.25 355.956 176.629C355.809 173.362 355.84 170.737 356.22 169.62C357.632 165.478 362.207 166.817 363.43 168.239C364.262 166.321 366.044 164.835 368.078 164.361C370.113 163.886 372.368 164.435 374.234 165.826C375.509 163.433 378.145 161.831 380.843 161.768C383.552 161.726 386.24 163.233 387.178 165.815C388.432 165.12 389.75 164.487 391.152 164.213C392.564 163.95 394.093 164.087 395.305 164.856C395.884 165.225 396.38 165.752 396.759 166.405C397.17 167.091 397.444 167.902 397.571 168.777C398.709 167.185 401.113 166.89 402.831 167.797C404.559 168.703 405.624 170.548 406.056 172.455C406.488 174.353 406.362 176.334 406.225 178.274Z" fill="#502202"/>
<path d="M396.759 166.405C395.262 165.752 393.565 165.583 391.974 165.942C389.971 166.395 388.169 167.681 387.167 169.631C386.229 167.112 383.562 165.351 380.874 165.478C378.187 165.615 375.699 167.618 374.466 170.758C373.022 169.051 370.682 168.123 368.458 168.387C366.234 168.65 364.168 170.073 363.187 172.308C362.418 171.401 361.026 171.233 359.909 171.644C358.802 172.065 357.928 172.972 357.274 173.963C356.715 174.795 356.294 175.691 355.946 176.619C355.798 173.351 355.83 170.727 356.209 169.61C357.622 165.467 362.196 166.806 363.419 168.229C364.252 166.311 366.033 164.824 368.068 164.35C370.102 163.876 372.358 164.424 374.223 165.815C375.499 163.423 378.134 161.821 380.832 161.757C383.541 161.715 386.229 163.222 387.167 165.805C388.422 165.109 389.739 164.477 391.141 164.203C392.554 163.939 394.082 164.076 395.294 164.846C395.884 165.225 396.38 165.752 396.759 166.405Z" fill="#6B4019"/>
<path d="M367.256 196.497C365.316 196.033 363.187 196.423 361.532 197.541" stroke="#502202" stroke-width="2" stroke-miterlimit="10" stroke-linecap="round"/>
<path d="M382.129 196.877C384.237 195.96 386.809 196.213 388.706 197.52" stroke="#502202" stroke-width="2" stroke-miterlimit="10" stroke-linecap="round"/>
<path d="M373.106 204.929C373.159 207.016 373.37 209.092 373.717 211.148" stroke="#B0514A" stroke-width="2" stroke-miterlimit="10" stroke-linecap="round"/>
<path d="M376.047 216.945C378.577 217.04 381.138 216.091 382.993 214.373" stroke="#B0514A" stroke-width="2" stroke-miterlimit="10" stroke-linecap="round"/>
<path d="M382.947 204.468C383.583 204.356 384.218 204.939 384.365 205.769C384.511 206.601 384.114 207.365 383.478 207.478C382.841 207.589 382.207 207.007 382.06 206.176C381.914 205.344 382.311 204.579 382.947 204.468Z" fill="#2D3A5E"/>
<path d="M365.301 204.709C365.937 204.597 366.572 205.18 366.718 206.011C366.865 206.842 366.468 207.606 365.832 207.719C365.195 207.832 364.561 207.248 364.414 206.417C364.268 205.586 364.664 204.821 365.301 204.709Z" fill="#2D3A5E"/>
<path d="M401.215 200.877C405.425 200.296 409.18 202.317 409.604 205.391C410.028 208.464 406.96 211.426 402.75 212.007C398.54 212.588 394.784 210.566 394.36 207.493C393.936 204.419 397.005 201.456 401.215 200.877Z" fill="#FDBD9B"/>
<path d="M400.976 206.415V206.331C400.976 205.319 401.798 204.497 402.81 204.497H403.832C404.844 204.497 405.666 205.319 405.666 206.331V206.415C405.666 207.427 404.844 208.249 403.832 208.249H402.81C401.798 208.249 400.976 207.427 400.976 206.415Z" fill="#4B8394"/>
<path d="M405.666 206.373H404.127V210.589H405.666V206.373Z" fill="#4B8394"/>
<path d="M399.447 229.076C399.447 229.076 386.956 236.623 384.785 239.332C382.614 242.051 381.95 245.761 381.95 245.761C381.95 245.761 378.956 239.448 378.282 238.921C377.607 238.394 372.368 233.429 372.368 233.429L366.223 238.088L357.991 242.367L358.339 321.438L414.014 325.212L415.448 239.406L399.447 229.076Z" fill="#69C5C9"/>
<path d="M381.886 246.225C379.251 268.401 383.826 307.157 376.395 322.208" stroke="#3E7C8A" stroke-width="0.5" stroke-miterlimit="10" stroke-linecap="round"/>
<path d="M382.962 242.473C382.962 242.473 383.9 238.973 386.061 237.245C388.221 235.516 399.363 228.96 399.658 228.887C399.953 228.813 405.424 232.628 405.424 232.628L397.16 244.359C397.16 244.359 388.685 238.404 386.703 238.91C384.806 239.406 382.962 242.473 382.962 242.473Z" fill="#9BEBE7"/>
<path d="M380.369 242.483C380.369 242.483 379.726 240.017 378.598 238.626C377.291 237.013 372.969 232.354 372.526 232.386C372.084 232.407 367.699 235.042 366.919 236.634C366.139 238.225 366.581 245.751 366.581 245.751C366.581 245.751 373.981 238.71 376.869 239.511C378.787 240.048 380.369 242.483 380.369 242.483Z" fill="#9BEBE7"/>
<path d="M404.233 231.258C404.233 231.258 394.567 240.344 393.112 249.566C391.658 258.789 392.216 307.315 401.165 323.462C408.923 337.47 409.661 382.086 409.661 402.797L436.814 393.437C436.814 393.437 436.698 356.284 427.928 321.881C421.129 295.215 427.654 246.488 423.764 241.724C421.055 238.394 404.233 231.258 404.233 231.258Z" fill="white"/>
<path d="M392.775 283.041C392.775 283.041 390.53 257.408 392.701 249.155C394.872 240.902 401.155 230.415 402.852 230.046C405.656 229.445 411.927 234.304 411.927 234.304C411.927 234.304 406.847 243.095 405.35 256.428C405.213 257.629 395.252 261.308 395.252 261.308C395.252 261.308 403.031 266.999 402.926 267.558C402.81 268.138 392.775 283.041 392.775 283.041Z" fill="#DAE8F7"/>
<path d="M374.951 333.285C380.778 333.285 385.502 330.345 385.502 326.719C385.502 323.092 380.778 320.153 374.951 320.153C369.123 320.153 364.4 323.092 364.4 326.719C364.4 330.345 369.123 333.285 374.951 333.285Z" fill="#407C91"/>
<path d="M389.413 318.118C385.829 317.644 382.245 317.17 378.661 316.695C377.702 316.569 376.669 316.453 375.794 316.864C374.582 317.433 374.023 318.824 373.918 320.258C375.71 320.416 377.502 320.564 379.315 320.859C377.122 323.873 374.434 326.529 371.409 328.711C370.734 329.196 370.028 329.67 369.522 330.324C369.006 330.977 368.721 331.862 368.985 332.653C369.259 333.433 370.039 333.96 370.85 334.118C371.662 334.276 372.495 334.139 373.464 334.192C373.169 335.383 373.77 336.721 374.845 337.301C375.92 337.881 377.375 337.638 378.429 336.837C378.977 337.87 380.042 338.619 381.201 338.787C382.361 338.956 383.594 338.534 384.606 338.25C385.449 339.23 386.746 339.81 388.032 339.789C389.328 339.767 390.593 339.146 391.637 338.218C394.746 335.457 397.223 331.978 398.815 328.131C395.41 325.075 392.248 321.765 389.413 318.118Z" fill="#FBBD9A"/>
<path d="M406.783 251.495C406.52 246.404 409.102 236.823 412.771 235.822C418.484 234.273 428.191 242.852 430.742 249.682C433.293 256.512 440.998 298.366 438.838 304.068C435.876 311.847 396.759 332.769 396.759 332.769L384.638 315.051C384.638 315.051 411.759 300.337 413.371 295.658C414.373 292.727 407.405 263.437 406.783 251.495Z" fill="white"/>
<path d="M419.907 242.726C419.907 242.726 415.532 248.449 415.532 258.757C415.532 269.065 418.062 293.476 417.472 294.372C416.892 295.268 397.771 307.663 397.771 307.663" stroke="#B8C8E3" stroke-miterlimit="10" stroke-linecap="round"/>
<path d="M415.848 274.304C412.96 270.878 410.968 266.883 410.072 262.699" stroke="#B8C8E3" stroke-miterlimit="10" stroke-linecap="round"/>
<path d="M405.466 328.563C411.674 325.18 420.655 319.9 426.062 315.589" stroke="#B8C8E3" stroke-miterlimit="10" stroke-linecap="round"/>
<path d="M370.808 233.06C370.808 233.06 369.164 239.384 369.164 250.378C369.164 268.823 366.761 320.11 357.053 327.689C349.421 333.644 339.861 333.264 335.518 333.264C335.518 333.264 344.551 328.458 347.924 322.882C351.677 316.685 352.309 296.986 352.805 286.72C353.332 275.842 354.312 245.867 355.556 243.253C358.254 237.614 370.808 233.06 370.808 233.06Z" fill="white"/>
<path d="M367.657 284.612C367.657 284.612 369.86 267.252 369.86 255.184C369.86 241.672 372.084 232.375 372.084 232.375C372.084 232.375 364.41 234.81 363.567 236.054C362.723 237.298 358.75 244.433 356.715 257.956C356.378 260.19 365.443 262.035 365.443 262.035C365.443 262.035 358.455 267.463 358.455 268.823C358.465 271.458 367.657 284.612 367.657 284.612Z" fill="#DAE8F7"/>
<path d="M355.134 248.617C355.134 278.024 352.467 301.549 351.181 309.718" stroke="#B8C8E3" stroke-miterlimit="10" stroke-linecap="round"/>
<path d="M350.96 259.157C351.719 263.373 353.553 267.537 354.681 268.812" stroke="#B8C8E3" stroke-miterlimit="10" stroke-linecap="round"/>
<path d="M356.378 210.526C356.378 210.526 357.822 244.454 378.166 245.751C395.336 246.847 404.865 225.746 404.865 210.473" stroke="#163649" stroke-miterlimit="10"/>
<path d="M379.452 246.172C379.452 246.172 366.94 291.895 332.229 300.158C289.751 310.276 248.126 298.904 248.126 298.904" stroke="#163649" stroke-miterlimit="10" stroke-linecap="round"/>
<path d="M323.354 247.469C323.354 247.469 328.15 275.189 306.658 289.544C287.621 302.266 248.126 298.335 248.126 298.335" stroke="#163649" stroke-miterlimit="10" stroke-linecap="round"/>
<path d="M365.116 326.55C365.116 326.55 287.263 326.708 247.588 298.904" stroke="#163649" stroke-miterlimit="10" stroke-linecap="round"/>
<path d="M528.106 131.381C527.632 123.076 533.661 114.854 541.725 112.82C549.788 110.786 559.001 115.16 562.522 122.696C565.536 129.147 564.503 136.704 563.049 143.681C561.605 150.659 559.802 157.879 561.457 164.803C562.859 170.632 566.622 175.776 567.37 181.72C568.393 189.899 562.638 198.394 554.658 200.471C550.147 201.641 544.318 200.197 542.884 195.759C541.556 191.649 544.592 187.275 543.981 183.006C543.464 179.422 540.544 176.766 538.141 174.068C529.287 164.097 529.16 149.731 528.106 131.381Z" fill="#381B07"/>
<path d="M450.706 236.37C446.669 231.764 443.718 223.469 443.718 220.676C443.718 217.377 443.191 213.994 444.35 210.905C444.951 209.314 445.868 207.87 446.785 206.436C447.829 204.803 448.862 203.169 449.905 201.535C450.337 200.861 450.833 200.144 451.602 199.933C452.899 199.585 454.09 201.05 454.027 202.4C453.953 203.738 453.067 204.877 451.539 206.068C452.119 203.612 453.363 201.314 455.091 199.48C455.545 198.995 456.156 198.51 456.809 198.658C457.874 198.911 457.842 200.429 457.558 201.483C456.841 204.128 456.135 206.774 455.566 209.05C457.821 213.351 457.621 218.452 457.663 223.3C457.705 228.149 458.18 233.398 461.384 237.045C458.306 238.394 454.68 233.018 450.706 236.37Z" fill="#DB8E62"/>
<path d="M450.243 235.801C450.243 235.801 460.941 272.354 469.026 273.102C478.808 274.019 486.755 264.976 486.755 264.976L493.143 232.238L478.66 223.564L470.67 249.798L459.265 236.908L450.243 235.801Z" fill="#DB8E62"/>
<path d="M498.424 237.698C490.455 234.684 482.455 231.732 474.497 228.676C476.668 218.273 479.683 205.804 482.318 201.82C487.251 194.368 495.22 193.989 495.22 193.989L498.856 204.75L498.424 237.477C498.424 237.477 498.424 237.561 498.424 237.698Z" fill="#1D9FB3"/>
<path d="M491.077 258.873L467.782 198.658L439.217 206.068L465.653 273.112L491.077 258.873Z" fill="#B23F37"/>
<path d="M487.198 255.563L466.212 201.967L442.917 208.281L465.864 266.925L487.198 255.563Z" fill="#EBF5FF"/>
<path d="M458.728 200.513L460.182 204.402L451.044 206.942L449.41 202.969L458.728 200.513Z" fill="#678CA8"/>
<path d="M477.311 476.524C477.395 480.476 518.852 479.138 520.717 475.881C521.93 473.752 519.695 468.398 517.987 464.93C517.081 463.064 516.322 461.747 516.322 461.747L511.052 454.369L506.846 454.253C497.517 459.639 488.221 465.499 482.613 470.084C479.303 472.803 477.279 475.059 477.311 476.524Z" fill="#136D94"/>
<path d="M482.613 470.095C491.182 475.491 510.925 467.944 517.987 464.94C517.081 463.075 516.322 461.757 516.322 461.757L511.052 454.379L506.846 454.263C497.517 459.649 488.21 465.51 482.613 470.095Z" fill="#DB8E62"/>
<path d="M495.335 438L496.801 454.158L497.328 459.955L497.697 463.939L514.467 462.179L514.604 459.365V459.354L514.741 456.403L515.668 437.305L515.763 435.386L505.549 436.693L495.335 438Z" fill="#DB8E62"/>
<path d="M495.335 438L496.801 454.158L505.191 455.202H505.202L512.274 456.098L514.741 456.403L515.668 437.305L505.549 436.693L495.335 438Z" fill="#CF6E4A"/>
<path d="M483.488 276.338C483.488 276.338 476.278 296.279 477.701 324.632C479.124 352.985 491.077 451.86 491.077 451.86L520.865 450.459L515.763 322.819L508.575 283.294" fill="#1D9FB3"/>
<path d="M551.844 476.124C554.469 479.075 585.152 451.165 584.467 447.486C584.014 445.083 578.839 442.459 575.286 440.93C573.389 440.108 571.956 439.592 571.956 439.592L563.154 437.4L559.876 440.035C556.271 450.185 552.993 460.682 551.707 467.797C550.937 471.992 550.874 475.027 551.844 476.124Z" fill="#136D94"/>
<path d="M551.707 467.786C561.731 466.332 571.861 447.781 575.286 440.92C573.389 440.098 571.955 439.581 571.955 439.581L563.154 437.389L559.876 440.024C556.271 450.174 552.993 460.661 551.707 467.786Z" fill="#DB8E62"/>
<path d="M540.576 435.112L547.543 441.932L556.324 450.522L559.191 453.315L570.817 441.11L569.088 438.865L564.061 432.351L554.426 419.871L540.576 435.112Z" fill="#DB8E62"/>
<path d="M540.576 435.112L547.543 441.932L564.061 432.351L554.426 419.871L540.576 435.112Z" fill="#CF6E4A"/>
<path d="M479.524 295.078C482.423 303.13 504.253 317.317 504.253 317.317C504.253 317.317 504.042 373.527 504.854 387.693C505.665 401.859 535.021 448.108 535.021 448.108L562.532 423.687C562.532 423.687 541.208 388.03 539.743 379.651C538.278 371.261 547.501 327.204 547.501 309.265C547.501 305.955 547.195 302.53 546.689 299.136C545.593 291.652 543.559 284.338 541.788 278.909C540.028 273.481 538.542 269.919 538.542 269.919C538.542 269.919 523.595 272.09 508.669 276.264C495.009 280.079 481.401 285.592 479.324 292.622C479.113 293.339 479.198 294.171 479.524 295.078Z" fill="#25B2C2"/>
<path d="M479.524 295.078C486.798 299.378 494.376 303.162 502.176 306.377C502.661 305.08 503.146 303.784 503.821 302.487C504.506 303.974 505.201 305.439 506.045 307.452C519.495 304.079 533.071 301.223 546.7 299.136C545.604 291.652 543.57 284.338 541.799 278.909C530.773 277.877 519.727 276.991 508.68 276.264C495.019 280.079 481.411 285.592 479.335 292.622C479.113 293.339 479.198 294.171 479.524 295.078Z" fill="#1D9FB3"/>
<path d="M555.923 202.716C554.88 196.392 530.942 188.265 522.804 189.003C505.328 190.595 492.669 193.767 488.684 196.265C484.7 198.763 481.063 222.099 481.063 228.602C481.063 236.296 483.709 251.4 483.003 257.492C481.633 269.308 474.465 294.329 474.465 294.329L500.806 303.563L504.074 297.808L507.057 305.101L550.59 295.12C550.59 295.12 547.259 260.454 547.259 254.372C547.269 248.544 557.272 210.874 555.923 202.716Z" fill="#27B8C1"/>
<path d="M515.257 206.847C506.509 252.412 506.024 265.46 504.032 297.47" stroke="#51DBDB" stroke-miterlimit="10" stroke-linecap="round"/>
<path d="M516.417 217.335C517.226 217.335 517.882 216.679 517.882 215.87C517.882 215.061 517.226 214.405 516.417 214.405C515.608 214.405 514.952 215.061 514.952 215.87C514.952 216.679 515.608 217.335 516.417 217.335Z" fill="#136D94"/>
<path d="M512.749 237.266C513.558 237.266 514.214 236.61 514.214 235.801C514.214 234.992 513.558 234.336 512.749 234.336C511.939 234.336 511.284 234.992 511.284 235.801C511.284 236.61 511.939 237.266 512.749 237.266Z" fill="#136D94"/>
<path d="M509.924 258.272C510.733 258.272 511.389 257.616 511.389 256.807C511.389 255.998 510.733 255.342 509.924 255.342C509.115 255.342 508.459 255.998 508.459 256.807C508.459 257.616 509.115 258.272 509.924 258.272Z" fill="#136D94"/>
<path d="M508.459 282.356C509.268 282.356 509.924 281.7 509.924 280.891C509.924 280.082 509.268 279.426 508.459 279.426C507.649 279.426 506.993 280.082 506.993 280.891C506.993 281.7 507.649 282.356 508.459 282.356Z" fill="#136D94"/>
<path d="M464.451 235.052L468.815 235.4L469.152 235.432L498.413 227.748C500.416 226.684 500.753 225.039 500.279 223.701C499.678 222.036 497.728 221.256 496.052 221.846L468.141 231.711L467.856 231.964L464.451 235.052Z" fill="#136D94"/>
<path d="M464.451 235.053L465.653 235.147L468.815 235.4C468.72 235.327 468.615 235.253 468.531 235.158C468.162 234.789 467.94 234.241 468.098 233.746C468.162 233.535 468.288 233.313 468.204 233.113C468.162 233.018 468.077 232.955 468.014 232.881C467.803 232.639 467.772 232.27 467.845 231.964L465.347 234.241L464.451 235.053Z" fill="#D68A5A"/>
<path d="M464.451 235.053L465.653 235.147C465.527 235.01 465.442 234.852 465.39 234.673C465.347 234.536 465.337 234.389 465.347 234.241L464.451 235.053Z" fill="#24151A"/>
<path d="M499.025 241.556C496.147 236.222 493.28 230.889 490.213 225.545C487.936 223.775 485.375 222.436 482.761 221.435C479.64 222.447 476.71 224.312 474.296 226.821C473.706 227.443 473.084 228.317 473.358 229.15C473.559 229.761 474.191 230.057 474.781 230.014C475.361 229.972 475.909 229.656 476.436 229.35C478.028 228.423 479.619 227.485 481.464 226.589C481.981 227.032 482.497 227.474 482.887 227.927C481.812 227.938 480.737 227.959 479.451 228.328C477.395 229.298 475.382 230.404 473.432 231.648C472.884 231.996 472.283 232.46 472.22 233.155C472.167 233.724 472.515 234.241 472.968 234.483C473.422 234.726 473.938 234.736 474.444 234.694C476.278 234.568 478.102 233.904 479.609 232.765C480.22 232.944 480.832 233.124 481.295 233.419C480.505 233.566 479.714 233.714 478.976 234.083C478.239 234.452 477.564 235.063 477.237 235.896C476.91 236.728 477.026 237.782 477.459 238.657C477.037 238.815 476.805 239.363 476.826 239.859C476.847 240.354 477.058 240.797 477.269 241.218C477.722 242.114 478.218 242.979 478.755 243.801C479.272 244.57 479.862 245.329 480.673 245.666C481.485 245.993 482.55 245.761 483.087 244.749C485.259 248.502 489.327 250.704 493.27 250.283C495.62 247.743 497.581 244.76 499.025 241.556Z" fill="#DB8E62"/>
<path d="M486.481 228.539C485.438 228.107 484.331 227.959 483.203 227.843" stroke="#A8473E" stroke-width="0.5" stroke-miterlimit="10" stroke-linecap="round"/>
<path d="M484.363 233.145C483.309 233.06 482.276 233.092 481.485 233.229" stroke="#A8473E" stroke-width="0.5" stroke-miterlimit="10" stroke-linecap="round"/>
<path d="M477.606 238.33C479.071 237.519 481.496 237.055 483.161 237.266" stroke="#A8473E" stroke-width="0.5" stroke-miterlimit="10" stroke-linecap="round"/>
<path d="M482.634 244.465C482.118 243.632 481.664 242.262 481.464 241.303" stroke="#A8473E" stroke-width="0.5" stroke-miterlimit="10" stroke-linecap="round"/>
<path d="M481.801 243.021C481.137 243.105 480.442 243.221 479.904 243.168" stroke="#A8473E" stroke-width="0.5" stroke-miterlimit="10" stroke-linecap="round"/>
<path d="M491.499 248.923C491.499 248.923 527.927 279.816 537.762 276.338C541.672 274.946 545.551 263.605 548.366 253.044C550.959 243.337 552.645 234.304 552.645 234.304L532.006 225.588C532.006 225.588 530.626 234.947 529.234 242.557C528.317 247.69 527.39 252.022 526.894 252.148C524.786 252.739 498.044 240.839 498.044 240.839L491.499 248.923Z" fill="#DB8E62"/>
<path d="M529.234 242.568C534.157 245.793 541.894 250.546 548.355 253.055C550.948 243.348 552.634 234.315 552.634 234.315L531.996 225.598C531.996 225.598 530.626 234.958 529.234 242.568Z" fill="#CF6E4A"/>
<path d="M552.634 245.297C543.601 243.579 536.433 242.093 527.801 239.005C529.023 228.866 531.88 210.526 534.199 204.876C535.843 200.871 542.305 193.831 549.588 196.877C556.872 199.923 559.665 204.729 558.896 217.409C558.611 221.92 554.321 236.117 552.634 245.297Z" fill="#32C9CF"/>
<path d="M508.596 193.62C508.596 193.62 510.714 203.211 514.804 206.015C518.894 208.818 534.378 191.575 534.378 191.575C531.711 189.088 531.068 184.208 531.1 179.886C531.132 175.48 531.869 171.686 531.869 171.686L513.002 177.135C513.191 181.794 512.812 185.156 512.222 187.57C510.936 192.808 508.596 193.62 508.596 193.62Z" fill="#DB8E62"/>
<path d="M512.232 187.57C520.928 189.414 527.579 183.881 531.1 179.886C531.132 175.48 531.869 171.686 531.869 171.686L513.002 177.135C513.202 181.804 512.822 185.156 512.232 187.57Z" fill="#CF6E4A"/>
<path d="M515.5 206.352C515.257 206.31 516.47 199.838 517.081 199.28C517.692 198.721 532.565 185.694 533.45 186.179C534.747 186.874 536.887 191.006 536.887 191.006C536.887 191.006 533.83 195.148 528.064 199.828C524.101 203.043 517.777 206.742 515.5 206.352Z" fill="#136D94"/>
<path d="M515.5 206.32C515.826 205.994 515.162 199.575 514.783 198.985C513.55 197.035 511.463 191.954 511.463 188.497C511.463 188.497 507.71 189.92 507.246 190.742C506.793 191.575 508.827 197.657 510.398 200.555C513.065 205.435 515.236 206.584 515.5 206.32Z" fill="#136D94"/>
<path d="M505.349 163.287C505.706 160.14 502.502 157.194 498.193 156.706C493.883 156.217 490.101 158.372 489.744 161.518C489.388 164.665 492.592 167.611 496.901 168.1C501.21 168.588 504.993 166.433 505.349 163.287Z" fill="#CF6E4A"/>
<path d="M542.252 153.346C542.252 138.485 531.975 126.438 519.295 126.438C506.614 126.438 496.337 138.485 496.337 153.346C496.337 168.208 502.672 182.985 515.521 182.458C528.181 181.931 542.252 168.208 542.252 153.346Z" fill="#DB8E62"/>
<path d="M537.161 159.723C534.494 156.825 532.807 151.354 532.396 149.025C529.846 148.287 526.757 145.842 525.208 142.543C521.318 146.432 506.54 148.624 501.607 147.339C498.097 151.671 497.992 153.821 496.748 159.354C495.947 152.598 496.305 145.705 497.791 139.065C507.036 136.082 516.08 132.488 524.849 128.293C526.346 127.576 528.138 126.849 529.572 127.692C530.489 128.23 530.963 129.273 531.437 130.232C533.419 134.269 536.265 137.884 539.722 140.762C540.618 141.51 541.641 142.353 541.683 143.513C541.714 144.271 541.314 144.967 540.945 145.631C539.29 148.677 539.575 156.002 537.161 159.723Z" fill="#CF6E4A"/>
<path d="M492.437 144.24C492.363 149.868 496.948 161.557 496.948 161.557C496.948 161.557 496.98 151.934 501.365 145.684C510.44 145.684 520.496 145.262 526.062 140.098C527.674 144.187 530.446 146.569 533.788 147.687C533.682 152.788 536.022 157.563 537.488 161.852C540.344 160.113 542.494 160.851 544.824 158.1C546.173 153.115 547.607 145.326 547.196 140.509C546.858 136.63 545.804 132.709 543.696 129.452C543.201 128.672 542.631 127.924 542.01 127.228C538.763 123.634 533.64 121.537 528.95 122.707C526.357 119.587 522.351 117.742 518.356 117.521C514.351 117.3 510.377 118.554 506.888 120.546C500.089 124.414 494.777 130.401 493.038 138.728C492.658 140.519 492.468 142.364 492.437 144.24Z" fill="#412408"/>
<path d="M492.437 144.24C492.627 143.513 492.859 142.796 493.122 142.09C494.419 138.664 496.527 135.587 498.951 132.836C502.609 128.641 507.152 125.025 512.517 123.529C517.882 122.043 524.112 122.981 528.117 126.849C533.177 124.699 539.385 125.869 543.686 129.442C543.19 128.662 542.621 127.913 541.999 127.218C538.753 123.624 533.63 121.526 528.939 122.696C526.346 119.576 522.341 117.732 518.346 117.51C514.341 117.289 510.367 118.543 506.878 120.535C500.079 124.404 494.766 130.39 493.027 138.717C492.658 140.519 492.469 142.364 492.437 144.24Z" fill="#664216"/>
<path d="M540.853 156.915C545.055 155.84 549.098 157.455 549.883 160.523C550.669 163.591 547.9 166.949 543.698 168.026C539.497 169.101 535.453 167.486 534.668 164.418C533.882 161.351 536.651 157.991 540.853 156.915Z" fill="#DB8E62"/>
<path d="M520.854 164.898C521.407 164.898 521.856 164.181 521.856 163.296C521.856 162.411 521.407 161.694 520.854 161.694C520.301 161.694 519.853 162.411 519.853 163.296C519.853 164.181 520.301 164.898 520.854 164.898Z" fill="#411F00"/>
<path d="M502.461 164.898C503.014 164.898 503.462 164.181 503.462 163.296C503.462 162.411 503.014 161.694 502.461 161.694C501.908 161.694 501.46 162.411 501.46 163.296C501.46 164.181 501.908 164.898 502.461 164.898Z" fill="#411F00"/>
<path d="M505.412 153.589C503.494 152.925 501.291 153.093 499.499 154.063" stroke="#412408" stroke-width="2" stroke-miterlimit="10" stroke-linecap="round"/>
<path d="M519.294 154.422C521.445 153.483 524.069 153.747 525.998 155.075" stroke="#412408" stroke-width="2" stroke-miterlimit="10" stroke-linecap="round"/>
<path d="M509.344 164.519C509.175 165.552 509.186 168.018 509.365 169.019" stroke="#A8473E" stroke-width="2" stroke-miterlimit="10" stroke-linecap="round"/>
<path d="M510.472 173.467C513.265 174.574 516.185 173.973 517.692 171.686" stroke="#A8473E" stroke-width="2" stroke-miterlimit="10" stroke-linecap="round"/>
<path d="M186.431 140.171C207.79 140.171 225.105 122.858 225.105 101.5C225.105 80.1426 207.79 62.8289 186.431 62.8289C165.072 62.8289 147.757 80.1426 147.757 101.5C147.757 122.858 165.072 140.171 186.431 140.171Z" fill="#318EFB"/>
<path d="M161.165 88.4938C169.629 72.726 186.368 93.8903 186.368 93.8903C186.368 93.8903 203.138 75.8036 211.571 87.5557C220.33 99.7505 186.368 128.156 186.368 128.156C186.368 128.156 153.966 101.911 161.165 88.4938Z" fill="#19418E"/>
<path d="M158.372 106.19L170.104 106.317L173.751 92.0458L181.266 119.176L187.211 86.312L193.672 115.908L197.53 94.4489L201.662 105.706L214.49 106.053" stroke="white" stroke-miterlimit="10" stroke-linecap="round"/>
<path d="M293.482 201.293C315.312 201.293 333.009 183.597 333.009 161.768C333.009 139.939 315.312 122.243 293.482 122.243C271.652 122.243 253.954 139.939 253.954 161.768C253.954 183.597 271.652 201.293 293.482 201.293Z" fill="#318EFB"/>
<path d="M314.574 163.518L284.322 180.845C278.567 184.144 271.231 182.152 267.942 176.408C266.298 173.531 265.971 170.263 266.772 167.291C267.573 164.319 269.502 161.673 272.39 160.018L302.642 142.69C308.386 139.402 315.723 141.394 319.022 147.149C320.666 150.026 320.993 153.294 320.181 156.255C319.38 159.228 317.451 161.873 314.574 163.518Z" fill="white"/>
<path d="M314.574 163.518L299.437 172.181L287.505 151.354L302.642 142.69C308.386 139.402 315.723 141.394 319.022 147.149C320.666 150.026 320.993 153.294 320.181 156.255C319.38 159.228 317.451 161.873 314.574 163.518Z" fill="#19418E"/>
<path d="M394.008 127.523C415.367 127.523 432.682 110.21 432.682 88.8522C432.682 67.4946 415.367 50.1809 394.008 50.1809C372.649 50.1809 355.335 67.4946 355.335 88.8522C355.335 110.21 372.649 127.523 394.008 127.523Z" fill="#318EFB"/>
<path d="M413.719 69.448V95.9561C413.719 102.417 410.441 108.467 404.97 112.03L394.008 118.427L383.952 111.903C377.965 108.446 374.287 102.101 374.287 95.2605V69.448L393.871 63.8408L394.008 63.8829L413.719 69.448Z" fill="white"/>
<path d="M413.719 69.4481V95.9562C413.719 102.417 410.441 108.467 404.97 112.03L394.008 118.427V63.8829L413.719 69.4481Z" fill="#F2E4E5"/>
<path d="M398.551 76.1515H389.455V106.106H398.551V76.1515Z" fill="#19418E"/>
<path d="M408.977 86.584H379.02V95.68H408.977V86.584Z" fill="#19418E"/>
</svg>
